<svg id="b7f647c8-8295-4830-adbe-b0743fa1f6ea" data-name="Layer 1" xmlns="http://www.w3.org/2000/svg" viewBox="0 0 272.484 133.643"><defs><style>.e2299a7b-04a0-489f-b409-71a3fd8cce77{fill:#de5d21;}.a5443d5f-50f0-4c52-aa5b-e65991e08c47{fill:#fff;stroke:#fff;stroke-miterlimit:10;}.e5206eaa-8a9e-4c4c-b03b-19b610e4945f{fill:#292231;}.f00054b9-6228-4be3-bebe-4659c3cf7de2{fill:#34a029;}.b8d0ccdb-2997-4935-8a3e-bec0faa9b465{fill:#126635;}.a527d026-2e14-4b0e-8c8f-185b5925c4be{fill:#53af4a;}.a3cf0d71-c8d8-4b39-966d-933562eb17e0{fill:#ff8e58;}.a918b6b9-0fe3-4bc7-8e04-b8b05563e5c9{fill:#ed6b2e;}</style></defs><polygon class="e2299a7b-04a0-489f-b409-71a3fd8cce77" points="111.678 70.902 97.409 48.178 97.409 41.308 102.212 41.308 109.3 55.308 119.372 66.561 118.07 52.794 124.009 36.023 124.562 32.964 128.876 34.003 131.424 41.48 125.902 57.272 126.593 71.727 139.248 61.19 148.434 63.282 134.314 78.832 130.77 109.344 123.084 109.486 125.646 83.981 111.678 70.902"/><polygon class="a5443d5f-50f0-4c52-aa5b-e65991e08c47" points="0.5 113.009 5.782 113.009 5.782 96.348 17.547 96.348 17.547 91.383 5.782 91.383 5.782 82.973 17.977 82.973 17.977 78.009 0.5 78.009 0.5 113.009"/><path class="a5443d5f-50f0-4c52-aa5b-e65991e08c47" d="M58.393,100a9.946,9.946,0,0,0,2.13-6.392,9.575,9.575,0,0,0-3.4-7.662Q54.04,83.337,47.1,83.337H40.915v35H46.2V104.011h.952l10,14.326h6.46L52.771,103.421A9.494,9.494,0,0,0,58.393,100Zm-12.2-.589V88.3h1.881q7.3,0,7.3,5.373,0,5.734-7.5,5.735Z" transform="translate(-16.817 -5.328)"/><polygon class="a5443d5f-50f0-4c52-aa5b-e65991e08c47" points="52.048 113.009 71.362 113.009 71.362 108.044 57.33 108.044 57.33 96.348 70.953 96.348 70.953 91.383 57.33 91.383 57.33 82.973 71.362 82.973 71.362 78.009 52.048 78.009 52.048 113.009"/><polygon class="a5443d5f-50f0-4c52-aa5b-e65991e08c47" points="97.612 82.973 97.612 78.009 78.298 78.009 78.298 113.009 97.612 113.009 97.612 108.044 83.58 108.044 83.58 96.348 97.203 96.348 97.203 91.383 83.58 91.383 83.58 82.973 97.612 82.973"/><polygon class="a5443d5f-50f0-4c52-aa5b-e65991e08c47" points="149.375 84.019 157.131 84.019 157.131 112.968 162.221 112.968 162.221 84.019 169.955 84.019 169.955 79.235 149.375 79.235 149.375 84.019"/><path class="a5443d5f-50f0-4c52-aa5b-e65991e08c47" d="M208.162,100.621a9.584,9.584,0,0,0,2.053-6.161,9.231,9.231,0,0,0-3.277-7.385q-2.971-2.513-9.657-2.512h-5.964V118.3h5.09V104.488h.918L206.96,118.3h6.226L202.743,103.92A9.159,9.159,0,0,0,208.162,100.621Zm-11.755-.568v-10.7h1.814q7.035,0,7.035,5.177,0,5.529-7.232,5.528Z" transform="translate(-16.817 -5.328)"/><polygon class="a5443d5f-50f0-4c52-aa5b-e65991e08c47" points="201.438 112.968 220.052 112.968 220.052 108.183 206.528 108.183 206.528 96.91 219.659 96.91 219.659 92.125 206.528 92.125 206.528 84.019 220.052 84.019 220.052 79.235 201.438 79.235 201.438 112.968"/><polygon class="a5443d5f-50f0-4c52-aa5b-e65991e08c47" points="226.737 112.968 245.352 112.968 245.352 108.183 231.828 108.183 231.828 96.91 244.958 96.91 244.958 92.125 231.828 92.125 231.828 84.019 245.352 84.019 245.352 79.235 226.737 79.235 226.737 112.968"/><path class="a5443d5f-50f0-4c52-aa5b-e65991e08c47" d="M286.9,102.292a14.376,14.376,0,0,0-6.009-4.052l-3.364-1.377q-3.671-1.507-3.671-3.976a3.725,3.725,0,0,1,1.4-2.971,5.2,5.2,0,0,1,3.517-1.2,5.146,5.146,0,0,1,2.818.7,7.092,7.092,0,0,1,2.207,2.622l4.129-2.447q-3.276-5.68-9.11-5.681a10.5,10.5,0,0,0-7.232,2.579,8.124,8.124,0,0,0-2.9,6.357q0,5.637,6.925,8.565l3.256,1.354a14.446,14.446,0,0,1,2.184,1.147,6.815,6.815,0,0,1,1.5,1.289,4.568,4.568,0,0,1,.852,1.508,5.672,5.672,0,0,1,.273,1.8,5.517,5.517,0,0,1-1.573,4.042,5.813,5.813,0,0,1-8.542-.59,8.763,8.763,0,0,1-1.224-4.107l-5.156,1.136a11.977,11.977,0,0,0,3.517,7.319,10.378,10.378,0,0,0,7.254,2.6,10.649,10.649,0,0,0,7.756-3.058,10.308,10.308,0,0,0,3.1-7.691A9.137,9.137,0,0,0,286.9,102.292Z" transform="translate(-16.817 -5.328)"/><path class="e5206eaa-8a9e-4c4c-b03b-19b610e4945f" d="M128.619,71.186a25.32,25.32,0,0,1-4.22-6.432c-2.235-4.2-3.84-8.66-6.672-12.526-.317-.432-1.046-.013-.726.425,2.964,4.046,4.623,8.759,7,13.135A23.951,23.951,0,0,0,128.254,72a22.012,22.012,0,0,0,4.336,3.356c.473.263.9-.462.424-.726A21.238,21.238,0,0,1,128.619,71.186Z" transform="translate(-16.817 -5.328)"/><path class="e5206eaa-8a9e-4c4c-b03b-19b610e4945f" d="M134.829,76.018c-.452-.3-.873.428-.424.726a24.989,24.989,0,0,1,3.793,2.929c.889.878,1.666,1.865,2.492,2.8.359.407.951-.19.595-.594-.841-.953-1.63-1.958-2.539-2.848A26.41,26.41,0,0,0,134.829,76.018Z" transform="translate(-16.817 -5.328)"/><path class="e5206eaa-8a9e-4c4c-b03b-19b610e4945f" d="M145.5,45.339c.034-.54-.807-.538-.84,0a17.217,17.217,0,0,1-1,4.482,24.148,24.148,0,0,1-2.646,4.922,20.075,20.075,0,0,0-2.507,11.2c.029.538.87.542.84,0-.2-3.7.535-8.292,2.8-11.356A18,18,0,0,0,145.5,45.339Z" transform="translate(-16.817 -5.328)"/><path class="f00054b9-6228-4be3-bebe-4659c3cf7de2" d="M193.676,58.228a1.5,1.5,0,0,0,2.16-1.946h0a1.5,1.5,0,0,1,1.428-2.2h0a1.5,1.5,0,0,0,.9-2.765h0A1.5,1.5,0,0,1,198.3,48.7h0a1.46,1.46,0,0,0,.531-.45c.033-.028.068-.054.1-.084A1.346,1.346,0,0,0,199,48l.023-.051a1.448,1.448,0,0,0,.082-.32,1.644,1.644,0,0,0,.026-.169c0-.026,0-.051,0-.077a1.471,1.471,0,0,0-1.432-1.522h0a1.494,1.494,0,0,1-1.409-1.171,1.473,1.473,0,0,1,.226-1.111,1.458,1.458,0,0,0,.249-1.016,1.5,1.5,0,0,0-2.2-1.2,1.5,1.5,0,0,1-2.165-1,1.524,1.524,0,0,1-.026-.379,1.542,1.542,0,0,0-.056-.543,1.5,1.5,0,0,0-1.69-1.079c-.025,0-.049.006-.073.011a1.422,1.422,0,0,0-.245.07,1.24,1.24,0,0,0-.435.284,1.435,1.435,0,0,0-.167.187,1.214,1.214,0,0,0-.106.119h0a1.5,1.5,0,0,1-2.38.214,1.524,1.524,0,0,1-.23-.343,1.578,1.578,0,0,0-.317-.441,1.506,1.506,0,0,0-2.264.251,1.258,1.258,0,0,0-.077.122,1.475,1.475,0,0,0-.1.232,1.591,1.591,0,0,0-.059.286c-.006.051-.028.092-.03.146a1.5,1.5,0,0,1-1.545,1.444c-.03,0-.059-.008-.089-.011a1.477,1.477,0,0,1-.7-.243h0a1.5,1.5,0,0,0-2.326,1.444,1.536,1.536,0,0,0,.17.518,1.405,1.405,0,0,1,.144.436c.006.03,0,.06.007.09a1.549,1.549,0,0,1,0,.347,1.493,1.493,0,0,1-1.583,1.309,1.5,1.5,0,0,0-1.3,2.408,1.557,1.557,0,0,0,.407.366,1.519,1.519,0,0,1,.322.269,1.5,1.5,0,0,1-.466,2.339,1.513,1.513,0,0,0-.2.144,1.606,1.606,0,0,0-.146.106,1.43,1.43,0,0,0-.19.209c-.023.031-.043.063-.063.1a1.492,1.492,0,0,0,1.205,2.29,1.5,1.5,0,0,1,1.189,2.335,1.5,1.5,0,0,0,1.946,2.161,1.5,1.5,0,0,1,2.2,1.427,1.5,1.5,0,0,0,2.766.9,1.5,1.5,0,0,1,2.617.138,1.5,1.5,0,0,0,2.844-.6,1.5,1.5,0,0,1,2.335-1.189Z" transform="translate(-16.817 -5.328)"/><path class="b8d0ccdb-2997-4935-8a3e-bec0faa9b465" d="M120.43,45.65a3.719,3.719,0,0,0,2.3-1.5l.638-.9.6.426a3.784,3.784,0,0,0,4.748-.3,1.57,1.57,0,0,0-1.839-.269,1.583,1.583,0,0,1-2.055-2.282,1.583,1.583,0,0,0-1.256-2.466,1.576,1.576,0,0,1-1.273-2.419c.021-.034.043-.067.068-.1a1.523,1.523,0,0,1,.2-.221,1.6,1.6,0,0,1,.155-.111,1.508,1.508,0,0,1,.212-.153,1.583,1.583,0,0,0,.492-2.47,1.627,1.627,0,0,0-.339-.284,1.656,1.656,0,0,1-.431-.387,1.587,1.587,0,0,1,1.372-2.543,1.577,1.577,0,0,0,1.672-1.383,1.6,1.6,0,0,0,0-.366c0-.032,0-.063-.007-.1a1.5,1.5,0,0,0-.153-.461,1.642,1.642,0,0,1-.179-.546,1.587,1.587,0,0,1,2.457-1.525h0a1.55,1.55,0,0,0,.74.257c.032,0,.063.011.094.012a1.582,1.582,0,0,0,1.632-1.525,1.518,1.518,0,0,1,.032-.155,1.654,1.654,0,0,1,.062-.3,1.52,1.52,0,0,1,.11-.246c.025-.045.052-.087.081-.129a1.606,1.606,0,0,1,2.039-.512,1.615,1.615,0,0,0-1.423-2.253,1.614,1.614,0,0,1-1.305-2.479c.022-.035.044-.069.069-.1a1.451,1.451,0,0,1,.205-.227,1.874,1.874,0,0,1,.158-.114,1.617,1.617,0,0,1,.218-.157,1.625,1.625,0,0,0,.5-2.533,1.718,1.718,0,0,0-.225-.187,1.614,1.614,0,0,1-2.478,1,1.623,1.623,0,0,0-2.341,2.107,1.836,1.836,0,0,1-1.094,2.39,1.719,1.719,0,0,1-2.067-1.752h0a1.379,1.379,0,0,0-2.544-.826,1.38,1.38,0,0,1-2.408-.127,1.379,1.379,0,0,0-2.616.557,1.379,1.379,0,0,1-2.148,1.094,1.379,1.379,0,0,0-1.988,1.79h0c.507.955-.146,2.469-1.258,2.445a1.857,1.857,0,0,1-1.949-1.975,1.623,1.623,0,0,0-3-.973,1.623,1.623,0,0,1-2.834-.149,1.623,1.623,0,0,0-3.08.655,1.623,1.623,0,0,1-2.528,1.288h0a1.8,1.8,0,0,0-2.4.5,1.623,1.623,0,0,1-2.833-.149,1.623,1.623,0,0,0-3.08.655,1.623,1.623,0,0,1-2.529,1.288,1.623,1.623,0,0,0-2.34,2.107,1.623,1.623,0,0,1-1.546,2.38h0a1.623,1.623,0,0,0-.973,3,1.622,1.622,0,0,1-.148,2.833,1.623,1.623,0,0,0,.654,3.081,1.623,1.623,0,0,1,1.289,2.528,1.614,1.614,0,0,0-.249.639,1.573,1.573,0,0,0,.788,1.757h0a1.622,1.622,0,0,1,0,2.837,1.623,1.623,0,0,0,.816,3.042,1.622,1.622,0,0,1,1.418,2.457,1.623,1.623,0,0,0,2.227,2.227,1.6,1.6,0,0,1,1.761.074,2.749,2.749,0,0,1,1.112-.991.5.5,0,0,0,.045-.876,2.744,2.744,0,0,1,1.646-5.063.472.472,0,0,0,.456-.228.489.489,0,0,0,.022-.509A2.774,2.774,0,0,1,92.3,44.7a2.685,2.685,0,0,1,.008-.567c0-.013,0-.027,0-.04a2.682,2.682,0,0,1,.149-.591l.008-.018a2.672,2.672,0,0,1,.262-.5c.02-.03.039-.06.06-.09a2.859,2.859,0,0,1,.4-.46,2.708,2.708,0,0,1,2.159-.689c0,.012,0,.026-.007.039a2.749,2.749,0,0,1,1.219.454.5.5,0,0,0,.782-.4,2.807,2.807,0,0,1,.214-.97,2.672,2.672,0,0,1,.284-.51c.02-.029.039-.058.06-.086a2.651,2.651,0,0,1,.406-.434c.012-.011.027-.018.039-.028a2.684,2.684,0,0,1,.446-.289c.05-.027.1-.052.155-.076a2.867,2.867,0,0,1,.522-.179c.016,0,.03-.01.046-.013a2.7,2.7,0,0,1,3.036,1.479.487.487,0,0,0,.424.281.506.506,0,0,0,.452-.236,2.959,2.959,0,0,1,.277-.371l.009-.01a2.7,2.7,0,0,1,2.888-.772c.049.016.092.04.139.058a2.783,2.783,0,0,1,.32.139c.048.025.091.058.138.086a2.745,2.745,0,0,1,.287.2c.03.024.056.05.085.075a2.828,2.828,0,0,1,.283.286l.039.048a2.816,2.816,0,0,1,.254.376,2.739,2.739,0,0,1,.344,1.534.5.5,0,0,0,.737.478,2.744,2.744,0,0,1,3.562,3.957.5.5,0,0,0,.4.781h0a2.747,2.747,0,0,1,1.422.456,1.611,1.611,0,0,1,1.674-1.214,1.636,1.636,0,0,0,.55-.059Z" transform="translate(-16.817 -5.328)"/><path class="f00054b9-6228-4be3-bebe-4659c3cf7de2" d="M145.1,32.7a1.406,1.406,0,0,0-1.368-1.454h0a1.426,1.426,0,0,1-1.345-1.118,1.405,1.405,0,0,1,.216-1.062,1.388,1.388,0,0,0,.237-.971,1.434,1.434,0,0,0-2.1-1.143,1.405,1.405,0,0,1-2.093-1.313,1.482,1.482,0,0,0-.053-.519,1.431,1.431,0,0,0-1.615-1.031c-.023,0-.046.006-.07.011a1.3,1.3,0,0,0-.234.067,1.372,1.372,0,0,0-.256.136,1.431,1.431,0,0,0-.16.135,1.536,1.536,0,0,0-.159.179,1.376,1.376,0,0,0-.1.113h0a1.424,1.424,0,0,1-2.493-.122,1.491,1.491,0,0,0-.3-.422,1.439,1.439,0,0,0-2.163.239c-.026.038-.05.076-.073.117a1.349,1.349,0,0,0-.1.222,1.467,1.467,0,0,0-.057.273c-.006.049-.027.088-.029.14a1.431,1.431,0,0,1-1.475,1.379c-.029,0-.057-.008-.085-.01a1.414,1.414,0,0,1-.67-.233h0a1.435,1.435,0,0,0-2.222,1.379,1.461,1.461,0,0,0,.162.494,1.337,1.337,0,0,1,.138.417c0,.029,0,.057.007.086a1.526,1.526,0,0,1,0,.331,1.426,1.426,0,0,1-1.512,1.25,1.437,1.437,0,0,0-1.242,2.3,1.491,1.491,0,0,0,.39.35,1.46,1.46,0,0,1,.307.257,1.433,1.433,0,0,1-.445,2.234,1.36,1.36,0,0,0-.192.138,1.464,1.464,0,0,0-.14.1,1.417,1.417,0,0,0-.181.2c-.022.029-.041.059-.06.09a1.425,1.425,0,0,0,1.151,2.188,1.432,1.432,0,0,1,1.136,2.23,1.431,1.431,0,0,0,1.858,2.064,1.432,1.432,0,0,1,2.1,1.363,1.431,1.431,0,0,0,2.641.859,1.432,1.432,0,0,1,2.5.131,1.432,1.432,0,0,0,2.717-.578,1.4,1.4,0,0,1,.329-.857h0a1.446,1.446,0,0,1,.8-.491c0,.025-.009.049-.012.073,1.094-.967,1.652-3.118,3.553-3.07,0-.145.009-.29.007-.435a1.4,1.4,0,0,1,.984-.314h0a1.431,1.431,0,0,0,.859-2.641h0a1.432,1.432,0,0,1,.131-2.5h0a1.4,1.4,0,0,0,.507-.43c.031-.027.065-.051.094-.081a1.212,1.212,0,0,0,.069-.162c.008-.017.014-.033.022-.05a1.426,1.426,0,0,0,.079-.3,1.507,1.507,0,0,0,.024-.162C145.1,32.747,145.1,32.723,145.1,32.7Z" transform="translate(-16.817 -5.328)"/><path class="e5206eaa-8a9e-4c4c-b03b-19b610e4945f" d="M138.774,42.921a22.583,22.583,0,0,1-.829,3.778c-.98,3.126-2.988,5.743-3.885,8.889a34.038,34.038,0,0,0-1.229,8.944c-.008.934.022,1.891.108,2.845a25.322,25.322,0,0,1-4.927-7.066c-2.06-4.381-3.066-9.113-6.138-12.994-.459-.579-.946-1.13-1.444-1.667l-3.593,1.178a20.934,20.934,0,0,1,3.494,4.132c2.5,4.068,3.412,8.808,5.757,12.943a28.469,28.469,0,0,0,8.963,9.533c1.456.979,3.07-.906,2.3-2.3-1.25-2.265-1.238-5.191-1.128-7.7a28.044,28.044,0,0,1,1.426-8.052,37.018,37.018,0,0,1,1.928-3.767,27.9,27.9,0,0,0,1.981-5.335,26.416,26.416,0,0,0,.768-6.427C140.426,39.8,139.868,41.954,138.774,42.921Z" transform="translate(-16.817 -5.328)"/><path class="f00054b9-6228-4be3-bebe-4659c3cf7de2" d="M131.894,14.536a1.436,1.436,0,0,1-.139,2.515,58.644,58.644,0,0,1-.335.241,1.393,1.393,0,0,0-.183.2c-.022.03-.042.06-.061.091a1.438,1.438,0,0,0,1.162,2.208,1.445,1.445,0,0,1,1.147,2.252,1.424,1.424,0,0,0,.407,2.006,1.641,1.641,0,0,0,.231.121l.039.015a1.6,1.6,0,0,0,.8.076,1.469,1.469,0,0,0,.4-.134,1.486,1.486,0,0,1,.165-.06,1.579,1.579,0,0,0,.533-.522h0a1.488,1.488,0,0,1,.112-.125,1.524,1.524,0,0,1,.176-.2,1.32,1.32,0,0,1,.46-.3,1.47,1.47,0,0,1,.259-.074c.025,0,.051-.008.076-.012a1.581,1.581,0,0,1,1.786,1.139,1.645,1.645,0,0,1,.059.574,1.549,1.549,0,0,0,.027.4,1.7,1.7,0,0,0,1.322,1.213c.388-.024.415-.323.538-.37a1.423,1.423,0,0,1,.735-.149,1.433,1.433,0,0,0,1.526-1.6c0-.029,0-.058-.006-.087a1.373,1.373,0,0,0-.14-.421,1.509,1.509,0,0,1-.164-.5,1.449,1.449,0,0,1,2.244-1.393,1.428,1.428,0,0,0,.676.235c.029,0,.057.01.086.011a1.446,1.446,0,0,0,1.49-1.393c0-.052.023-.092.029-.141a1.221,1.221,0,0,1,.157-.5c.023-.041.048-.08.074-.118a1.452,1.452,0,0,1,2.183-.241,1.5,1.5,0,0,1,.307.425,1.395,1.395,0,1,0,1.922-1.815h0a1.446,1.446,0,0,1,.133-2.524h0a1.418,1.418,0,0,0,.511-.435c.032-.027.066-.051.1-.081a1.393,1.393,0,0,0,.07-.164l.021-.05a1.455,1.455,0,0,0,.08-.308,1.525,1.525,0,0,0,.024-.163c0-.025,0-.05,0-.075a1.42,1.42,0,0,0-1.381-1.467h0a1.439,1.439,0,0,1-1.359-1.129,1.421,1.421,0,0,1,.218-1.072,1.4,1.4,0,0,0,.24-.98A1.449,1.449,0,0,0,148.52,8.51a1.447,1.447,0,0,1-2.088-.96,1.422,1.422,0,0,1-.025-.366,1.486,1.486,0,0,0-.054-.524,1.443,1.443,0,0,0-1.63-1.04c-.024,0-.047.006-.07.011a1.253,1.253,0,0,0-.237.068,1.307,1.307,0,0,0-.258.137,1.373,1.373,0,0,0-.162.136,1.482,1.482,0,0,0-.161.18c-.032.042-.072.068-.1.115h0a1.448,1.448,0,0,1-2.3.207,1.5,1.5,0,0,1-.222-.331,1.481,1.481,0,0,0-.306-.425,1.452,1.452,0,0,0-2.183.241,1.3,1.3,0,0,0-.074.118,1.261,1.261,0,0,0-.1.224,1.506,1.506,0,0,0-.057.275,1.138,1.138,0,0,0-.029.141,1.446,1.446,0,0,1-1.49,1.393c-.029,0-.058-.008-.086-.01a1.428,1.428,0,0,1-.676-.235h0a1.449,1.449,0,0,0-2.244,1.392,1.492,1.492,0,0,0,.164.5,1.391,1.391,0,0,1,.14.421c0,.029,0,.058.006.087a1.554,1.554,0,0,1,0,.334,1.44,1.44,0,0,1-1.527,1.263,1.45,1.45,0,0,0-1.253,2.322A1.5,1.5,0,0,0,131.894,14.536Z" transform="translate(-16.817 -5.328)"/><path class="a527d026-2e14-4b0e-8c8f-185b5925c4be" d="M158.627,24.04A1.3,1.3,0,0,0,156.721,23a1.3,1.3,0,0,1-1.874-.861,1.267,1.267,0,0,1-.023-.328,1.332,1.332,0,0,0-.048-.471,1.3,1.3,0,0,0-1.464-.934l-.063.01a1.246,1.246,0,0,0-.212.061,1.232,1.232,0,0,0-.232.123,1.359,1.359,0,0,0-.145.122,1.33,1.33,0,0,0-.144.162,1.143,1.143,0,0,0-.092.1h0a1.289,1.289,0,0,1-2.259-.111,1.361,1.361,0,0,0-.275-.382,1.3,1.3,0,0,0-1.96.217c-.024.034-.046.068-.067.105a1.224,1.224,0,0,0-.089.2,1.35,1.35,0,0,0-.052.247c0,.044-.024.08-.026.126a1.3,1.3,0,0,1-1.337,1.251c-.026,0-.052-.007-.077-.01a1.263,1.263,0,0,1-.607-.211h0a1.3,1.3,0,0,0-2.015,1.25,1.349,1.349,0,0,0,.148.448,1.244,1.244,0,0,1,.125.378c0,.026,0,.052.006.078a1.368,1.368,0,0,1,0,.3,1.284,1.284,0,0,1-1.195,1.111,1.627,1.627,0,0,1,.882,1.279,1.537,1.537,0,0,1-.263,1.074,1.554,1.554,0,0,0-.238,1.173,1.576,1.576,0,0,0,1.488,1.237h0a1.554,1.554,0,0,1,1.512,1.607c0,.027.006.054,0,.082a1.367,1.367,0,0,1-.027.178,1.556,1.556,0,0,1-.087.338c-.008.018-.015.036-.024.054a1.347,1.347,0,0,1-.076.18c-.032.032-.07.059-.1.089a1.542,1.542,0,0,1-.56.476h0a1.582,1.582,0,0,0-.145,2.763h0a1.645,1.645,0,0,1,.406.362,1.294,1.294,0,0,1,1.3,1.381,1.3,1.3,0,0,0,2.394.778,1.3,1.3,0,0,1,2.266.118,1.3,1.3,0,0,0,2.462-.523,1.3,1.3,0,0,1,2.021-1.03h0a1.3,1.3,0,0,0,1.87-1.684h0a1.3,1.3,0,0,1,1.236-1.9,1.3,1.3,0,0,0,.778-2.394h0a1.3,1.3,0,0,1,.119-2.266h0a1.274,1.274,0,0,0,.459-.39c.029-.024.059-.046.086-.073a1.121,1.121,0,0,0,.063-.147c.007-.015.012-.03.019-.045a1.328,1.328,0,0,0,.072-.277,1.425,1.425,0,0,0,.021-.146c0-.022,0-.044,0-.067a1.273,1.273,0,0,0-1.24-1.317,1.292,1.292,0,0,1-1.219-1.014,1.273,1.273,0,0,1,.195-.962A1.259,1.259,0,0,0,158.627,24.04Z" transform="translate(-16.817 -5.328)"/><polygon class="a3cf0d71-c8d8-4b39-966d-933562eb17e0" points="142.561 119.689 133.785 116.781 130.949 117.067 137.559 122.839 142.561 119.689"/><path class="a918b6b9-0fe3-4bc7-8e04-b8b05563e5c9" d="M128.715,124.212l5.079-2.3-7.013-3.341-1.427,2a5.833,5.833,0,0,1-2.1,1.813,5.828,5.828,0,0,0-2.929,3.52Z" transform="translate(-16.817 -5.328)"/><path class="a3cf0d71-c8d8-4b39-966d-933562eb17e0" d="M127.682,125.564l-7.662,1.551-.006.027A5.835,5.835,0,0,1,118.5,129.9a4.808,4.808,0,0,0-1.076,5.046,6.185,6.185,0,0,0,4.887,3.96Z" transform="translate(-16.817 -5.328)"/><path class="e2299a7b-04a0-489f-b409-71a3fd8cce77" d="M170.728,131.313l-1.147-.916-.636-2.565c-.009-.036-.026-.069-.035-.1l-2.145-.262-6.008-1.991-6.489,4.085-8.029-7.01-9.172.926-.141-.068-1.816-.865L129,125.3h0l-5.509,13.673h43.53l3.582-1.011h0A4.189,4.189,0,0,0,170.728,131.313Z" transform="translate(-16.817 -5.328)"/><polygon class="a918b6b9-0fe3-4bc7-8e04-b8b05563e5c9" points="125.471 113.791 119.556 116.574 120.449 117 128.436 116.194 125.471 113.791"/><path class="b8d0ccdb-2997-4935-8a3e-bec0faa9b465" d="M190.463,64.8a1.621,1.621,0,0,1-.268-2.535c-.049,0-.1.016-.147.016a2.115,2.115,0,0,1-1.912-1.206,1.015,1.015,0,0,0-.871-.574,1,1,0,0,0-.925.482,2.149,2.149,0,0,1-3.967-1.284,1.028,1.028,0,0,0-1.508-.977,2.15,2.15,0,0,1-2.8-3.1,1.029,1.029,0,0,0-.818-1.6,2.149,2.149,0,0,1-.871-4.077,1.03,1.03,0,0,0,.092-1.8,2.121,2.121,0,0,1-.907-2.485,2.093,2.093,0,0,1,2.191-1.483,1.043,1.043,0,0,0,.932-.467,1.013,1.013,0,0,0,.045-1.042,2.149,2.149,0,0,1,3.095-2.794,1.028,1.028,0,0,0,1.6-.818,2.126,2.126,0,0,1,3.425-1.628,1.585,1.585,0,0,1,.886-1.41h0a1.623,1.623,0,0,0-.655-3.08,1.623,1.623,0,0,1-1.288-2.529,1.623,1.623,0,0,0-2.107-2.34,1.623,1.623,0,0,1-2.38-1.545h0a1.623,1.623,0,0,0-3-.973,1.623,1.623,0,0,1-2.833-.149,1.613,1.613,0,0,0-2.551-.474,1.614,1.614,0,0,1-2.181-1.618,1.623,1.623,0,0,0-3-.973,1.623,1.623,0,0,1-2.834-.149,1.586,1.586,0,0,0-.492-.577,1.62,1.62,0,0,0-1.45-2.218,1.624,1.624,0,0,1-1.288-2.529,1.623,1.623,0,0,0-2.107-2.34,1.623,1.623,0,0,1-2.38-1.545,1.623,1.623,0,0,0-2.994-.974,1.6,1.6,0,0,1-1.007.716,1.609,1.609,0,0,1,1.085,1.559c0,.028.006.055,0,.083a1.582,1.582,0,0,1-.027.183,1.626,1.626,0,0,1-.09.347c-.008.019-.015.037-.024.056a1.561,1.561,0,0,1-.078.184c-.034.033-.071.061-.107.091a1.6,1.6,0,0,1-.575.488h0a1.623,1.623,0,0,0-.149,2.834h0c.356.223,1.787,1.278,1.941,1.888a1.511,1.511,0,0,1,.053.524,1.512,1.512,0,0,0,.025.365,1.447,1.447,0,0,0,2.088.961,1.448,1.448,0,0,1,2.123,1.154,1.407,1.407,0,0,1-.24.981,1.419,1.419,0,0,0-.218,1.071,1.442,1.442,0,0,0,1.359,1.13h0a1.418,1.418,0,0,1,1.381,1.467c0,.025,0,.049,0,.074a1.283,1.283,0,0,1-.025.163,1.391,1.391,0,0,1-.08.309c-.007.017-.013.033-.021.05a1.243,1.243,0,0,1-.07.164c-.029.029-.063.054-.095.081a1.43,1.43,0,0,1-.512.435,1.445,1.445,0,0,0-.132,2.523h0a1.445,1.445,0,0,1-.867,2.667h0a1.446,1.446,0,0,0-1.376,2.12h0a1.445,1.445,0,0,1-2.084,1.876h0a1.445,1.445,0,0,0-2.251,1.147,1.446,1.446,0,0,1-2.743.584,1.446,1.446,0,0,0-2.524-.133,1.445,1.445,0,0,1-2.667-.867,1.414,1.414,0,0,0-.519-1.2,1.6,1.6,0,0,1-.677,1.088l-.055,2.888a3.785,3.785,0,0,0,1.44,3.044l3.258.914,1.843.152-.026.256a3.781,3.781,0,0,0,2.94,4.068,1.6,1.6,0,0,1,2.364-.689h0a1.582,1.582,0,0,0,.75.261c.032,0,.064.011.1.012a1.6,1.6,0,0,0,1.653-1.546,1.558,1.558,0,0,1,.033-.157,1.632,1.632,0,0,1,.063-.3,1.528,1.528,0,0,1,.193-.38,1.612,1.612,0,0,1,2.423-.268,1.681,1.681,0,0,1,.34.472,1.57,1.57,0,0,0,.246.367,1.606,1.606,0,0,0,2.547-.229h0a1.382,1.382,0,0,1,.113-.127,1.743,1.743,0,0,1,.179-.2,1.59,1.59,0,0,1,.179-.151,1.465,1.465,0,0,1,.287-.152,1.422,1.422,0,0,1,.262-.075l.078-.012a1.6,1.6,0,0,1,1.809,1.154,1.667,1.667,0,0,1,.06.582,1.634,1.634,0,0,0,.027.405,1.606,1.606,0,0,0,2.318,1.066,1.608,1.608,0,0,1,2.356,1.281,1.56,1.56,0,0,1-.267,1.088,1.578,1.578,0,0,0-.242,1.189,1.6,1.6,0,0,0,1.508,1.253h0a1.577,1.577,0,0,1,1.533,1.629c0,.028.005.055.005.083a1.817,1.817,0,0,1-.027.18,1.589,1.589,0,0,1-.089.343c-.008.018-.015.037-.024.055a1.46,1.46,0,0,1-.077.182c-.033.033-.071.06-.106.09a1.577,1.577,0,0,1-.568.483h0a1.6,1.6,0,0,0-.147,2.8h0a1.6,1.6,0,0,1-.962,2.96h0A1.6,1.6,0,0,0,171.9,66.5h0a1.591,1.591,0,0,1-2.006,2.22,1.617,1.617,0,0,1-.218.5,1.623,1.623,0,0,0,2.107,2.34,1.623,1.623,0,0,1,2.38,1.546,1.623,1.623,0,0,0,3,.973,1.623,1.623,0,0,1,2.834.148h0a1.623,1.623,0,0,0,3.08-.654,1.623,1.623,0,0,1,2.528-1.289,1.623,1.623,0,0,0,2.34-2.107A1.623,1.623,0,0,1,189.49,67.8,1.623,1.623,0,0,0,190.463,64.8Z" transform="translate(-16.817 -5.328)"/><path class="a527d026-2e14-4b0e-8c8f-185b5925c4be" d="M114.585,51.707c-.135-.145-.254-.3-.392-.447l.013-.014c.036-.03.074-.058.107-.091a1.41,1.41,0,0,0,.078-.184c.009-.019.016-.037.024-.056a1.555,1.555,0,0,0,.09-.347,1.4,1.4,0,0,0,.027-.182c0-.029,0-.056,0-.084a1.593,1.593,0,0,0-1.55-1.648h0a1.617,1.617,0,0,1-1.526-1.268,1.591,1.591,0,0,1,.245-1.2,1.581,1.581,0,0,0,.269-1.1,1.626,1.626,0,0,0-2.383-1.3,1.6,1.6,0,0,1-2.373-1.489,1.675,1.675,0,0,0-.06-.588,1.621,1.621,0,0,0-1.831-1.168.718.718,0,0,0-.079.012,1.456,1.456,0,0,0-.265.076,1.505,1.505,0,0,0-.291.154,1.612,1.612,0,0,0-.181.153,1.789,1.789,0,0,0-.181.2,1.573,1.573,0,0,0-.114.128h0a1.613,1.613,0,0,1-2.826-.139,1.689,1.689,0,0,0-.344-.478,1.631,1.631,0,0,0-2.452.271c-.029.043-.057.087-.082.133a1.475,1.475,0,0,0-.113.252,1.743,1.743,0,0,0-.064.309,1.578,1.578,0,0,0-.033.158,1.624,1.624,0,0,1-1.673,1.564c-.032,0-.064-.009-.1-.012a1.59,1.59,0,0,1-.759-.264h0a1.627,1.627,0,0,0-2.52,1.564,1.7,1.7,0,0,0,.184.56,1.505,1.505,0,0,1,.157.473c.006.032,0,.064.007.1a1.688,1.688,0,0,1,0,.376,1.616,1.616,0,0,1-1.714,1.417,1.628,1.628,0,0,0-1.407,2.608,1.681,1.681,0,0,0,.441.4,1.611,1.611,0,0,1-.156,2.824,1.606,1.606,0,0,0-.217.157,1.742,1.742,0,0,0-.159.114,1.612,1.612,0,0,0-.2.227c-.025.034-.047.068-.069.1a1.616,1.616,0,0,0,1.305,2.48A1.623,1.623,0,0,1,92.7,58.985a1.623,1.623,0,0,0,2.107,2.34,1.623,1.623,0,0,1,2.38,1.546,1.623,1.623,0,0,0,3,.973,1.622,1.622,0,0,1,2.833.148,1.623,1.623,0,0,0,3.081-.654,1.623,1.623,0,0,1,2.528-1.289h0a1.622,1.622,0,0,0,2.34-2.106h0a1.623,1.623,0,0,1,1.546-2.379h0a1.582,1.582,0,0,0,1.64-1.088c.025.036.044.072.069.107C114.956,54.71,113.558,52.867,114.585,51.707Z" transform="translate(-16.817 -5.328)"/><path class="e5206eaa-8a9e-4c4c-b03b-19b610e4945f" d="M141.726,112.551c-.2-9.343,4.195-19.163-.685-27.888C137.872,79,131.5,77.122,127.284,72.53c-4.516-4.914-6.232-11.632-9.815-17.148a27.464,27.464,0,0,0-2.884-3.675c-1.027,1.16.371,3-.366,4.875.323.469.632.939.908,1.4,3.19,5.361,5.1,11.432,9.186,16.249a30.523,30.523,0,0,0,6.886,5.653c2.405,1.564,4.823,3.17,6.422,5.617,3.048,4.663,2.474,10.468,1.812,15.725a83.8,83.8,0,0,0-1.041,11.366C139.267,113.089,140.453,112.558,141.726,112.551Z" transform="translate(-16.817 -5.328)"/><path class="a3cf0d71-c8d8-4b39-966d-933562eb17e0" d="M144.78,112.357a2.471,2.471,0,0,1-3.054.222v-.028c-1.273.007-2.459.538-3.334.045,0,.043,0,.087,0,.13a5.03,5.03,0,0,1-1.953.166l-.371-.043a5.05,5.05,0,0,0-3.449.864l-3.961,2.743a5.067,5.067,0,0,0-1.213,1.192l7.622,3.631,7.382-3.473,4.313,3.5,10.317-1.117,4.807-2.7c-.05-.05-.09-.11-.142-.158l-2.666-2.434a5.047,5.047,0,0,0-3.716-1.31l-3.405.212a5.036,5.036,0,0,1-2.612-.562c0-.118.014-.236.019-.354a9.376,9.376,0,0,1-4.608-.946C144.763,112.075,144.763,112.218,144.78,112.357Z" transform="translate(-16.817 -5.328)"/><path class="e5206eaa-8a9e-4c4c-b03b-19b610e4945f" d="M153.987,66.393c-3.2,2.841-6.075,6-9.115,9a46.457,46.457,0,0,1-1.273-7.538,18.88,18.88,0,0,1,1.874-9.953,53.367,53.367,0,0,0,3.72-8.909,25.5,25.5,0,0,0,.568-2.968l-3.258-.914a23.828,23.828,0,0,1-.909,4.221c-.994,3.135-2.718,5.968-3.96,9-2.688,6.57-1.258,14.1.749,20.681a1.7,1.7,0,0,0,2.81.742c3.625-3.336,6.835-7.081,10.5-10.383.852-.769,1.718-1.5,2.588-2.223-1.151-.989-2.763-.471-3.706-1.268C154.377,66.053,154.18,66.222,153.987,66.393Z" transform="translate(-16.817 -5.328)"/><path class="e5206eaa-8a9e-4c4c-b03b-19b610e4945f" d="M163.53,68.63c-.254.175-1.432,1.046-1.68,1.231-3.845,2.873-7.086,6.876-9.89,10.734a15.7,15.7,0,0,0-3.212,6.967c-.406,2.666-.308,5.366-.621,8.039-.454,3.884-1.2,7.732-1.656,11.616-.157,1.317-.34,2.739-.468,4.188q-.232.181-.44.347a23.811,23.811,0,0,1,.138-2.524c.1-1.473.226-2.945.371-4.414.365-3.692,1.271-7.3,1.492-11.012.2-3.288.056-7.409,1.772-10.332a60.662,60.662,0,0,1,5.448-7.652,44.839,44.839,0,0,1,6.086-6.13c-.4,0,.162-.566-.456-.566a65.588,65.588,0,0,0-11.258,13.046c-1.793,2.788-2.031,6.049-2.28,9.291-.187,2.421-.328,4.813-.733,7.213-.287,1.7-.616,3.387-.8,5.1-.182,1.659-.326,3.323-.446,4.988a24.452,24.452,0,0,0-.138,3.175,9.376,9.376,0,0,0,4.608.946c.053-1.473.174-2.946.329-4.41.408-3.832,1.082-7.624,1.611-11.439.305-2.2.372-4.4.511-6.613a12.887,12.887,0,0,1,2.135-6.816,50.589,50.589,0,0,1,9.075-10.413,14.333,14.333,0,0,0,2.829-3.263C164.724,70.028,164.6,68.949,163.53,68.63Z" transform="translate(-16.817 -5.328)"/><path d="M162.239,69.227c.125.035.249.073.373.11l.007,0C162.493,69.3,162.366,69.263,162.239,69.227Z" transform="translate(-16.817 -5.328)"/><path class="a918b6b9-0fe3-4bc7-8e04-b8b05563e5c9" d="M165.744,123.68a5.819,5.819,0,0,1-1.509-1.963L162.9,118.9a4.958,4.958,0,0,0-.316-.529l-5.273,2.917-4.245.46,14,4.638,1.376.165a5.813,5.813,0,0,0-1.393-1.769Z" transform="translate(-16.817 -5.328)"/><path class="a527d026-2e14-4b0e-8c8f-185b5925c4be" d="M164.874,49.373h0a1.444,1.444,0,0,1,2.676.831h0a1.444,1.444,0,0,0,2.136,1.347h0a1.444,1.444,0,0,1,1.9,2.058h0a1.445,1.445,0,0,0,1.176,2.235h0a1.444,1.444,0,0,1,.618,2.733h0a1.445,1.445,0,0,0-.1,2.524h0a1.444,1.444,0,0,1-.831,2.676h0a1.445,1.445,0,0,0-1.348,2.136h0a1.444,1.444,0,0,1-2.058,1.9h0a1.444,1.444,0,0,0-2.234,1.176h0a1.445,1.445,0,0,1-2.734.618h0a1.444,1.444,0,0,0-2.523-.1h0a1.444,1.444,0,0,1-2.676-.831h0a1.445,1.445,0,0,0-2.136-1.348h0a1.444,1.444,0,0,1-1.9-2.058h0a1.445,1.445,0,0,0-1.176-2.235h0a1.444,1.444,0,0,1-.618-2.733h0a1.444,1.444,0,0,0,.1-2.523h0a1.444,1.444,0,0,1,.831-2.676h0a1.445,1.445,0,0,0,1.348-2.136h0a1.444,1.444,0,0,1,2.057-1.9h0a1.444,1.444,0,0,0,2.235-1.176h0a1.445,1.445,0,0,1,2.734-.618h0A1.444,1.444,0,0,0,164.874,49.373Z" transform="translate(-16.817 -5.328)"/></svg>