<?xml version="1.0" encoding="UTF-8"?>
<svg width="280px" height="128px" viewBox="0 0 280 128" version="1.1" xmlns="http://www.w3.org/2000/svg" xmlns:xlink="http://www.w3.org/1999/xlink">
    <!-- Generator: Sketch 60.1 (88133) - https://sketch.com -->
    <title>Desktop</title>
    <desc>Created with Sketch.</desc>
    <g id="Desktop" stroke="none" stroke-width="1" fill="none" fill-rule="evenodd">
        <g id="Group-2" transform="translate(30.000000, 17.000000)" fill-rule="nonzero">
            <path d="M3.196,57.068 C4.556,57.068 5.236,56.7053333 5.236,55.98 L5.236,55.98 L5.236,48.092 L12.308,48.092 C12.6706667,48.092 12.9313333,47.956 13.09,47.684 C13.2486667,47.412 13.328,46.9813333 13.328,46.392 L13.328,46.392 L13.328,45.338 C13.328,44.7486667 13.2486667,44.318 13.09,44.046 C12.9313333,43.774 12.6706667,43.638 12.308,43.638 L12.308,43.638 L5.236,43.638 L5.236,37.654 L12.546,37.654 C12.9086667,37.654 13.1693333,37.518 13.328,37.246 C13.4866667,36.974 13.566,36.5433333 13.566,35.954 L13.566,35.954 L13.566,34.9 C13.566,34.3106667 13.4866667,33.88 13.328,33.608 C13.1693333,33.336 12.9086667,33.2 12.546,33.2 L12.546,33.2 L1.36,33.2 C0.884,33.2 0.538333333,33.3076667 0.323,33.523 C0.107666667,33.7383333 -2.84217094e-14,34.084 -2.84217094e-14,34.56 L-2.84217094e-14,34.56 L-2.84217094e-14,55.98 C-2.84217094e-14,56.7053333 0.68,57.068 2.04,57.068 L2.04,57.068 L3.196,57.068 Z M28.938,57.068 C30.298,57.068 30.978,56.7053333 30.978,55.98 L30.978,55.98 L30.978,45.066 C31.25,44.6353333 31.6183333,44.2443333 32.083,43.893 C32.5476667,43.5416667 33.086,43.366 33.698,43.366 C33.9473333,43.366 34.242,43.4113333 34.582,43.502 C34.922,43.5926667 35.16,43.638 35.296,43.638 C35.5906667,43.638 35.84,43.281 36.044,42.567 C36.248,41.853 36.35,41.258 36.35,40.782 C36.35,40.17 36.2196667,39.711 35.959,39.405 C35.6983333,39.099 35.1826667,38.946 34.412,38.946 C33.528,38.946 32.797,39.1783333 32.219,39.643 C31.641,40.1076667 31.1366667,40.7366667 30.706,41.53 C30.6833333,41.394 30.6323333,41.1446667 30.553,40.782 C30.4736667,40.4193333 30.3546667,40.085 30.196,39.779 C30.0373333,39.473 29.754,39.32 29.346,39.32 C28.6433333,39.32 27.833,39.4106667 26.915,39.592 C25.997,39.7733333 25.538,40.0453333 25.538,40.408 C25.538,40.5666667 25.572,40.8046667 25.64,41.122 C25.7306667,41.7793333 25.8043333,42.3743333 25.861,42.907 C25.9176667,43.4396667 25.946,44.2046667 25.946,45.202 L25.946,45.202 L25.946,55.98 C25.946,56.7053333 26.626,57.068 27.986,57.068 L27.986,57.068 L28.938,57.068 Z M55.904,57.272 C56.6293333,57.272 57.4793333,57.1813333 58.454,57 C59.4286667,56.8186667 60.2673333,56.541 60.97,56.167 C61.6726667,55.793 62.024,55.3453333 62.024,54.824 C62.024,54.5973333 61.9276667,54.2743333 61.735,53.855 C61.5423333,53.4356667 61.3043333,53.0616667 61.021,52.733 C60.7376667,52.4043333 60.4826667,52.24 60.256,52.24 C60.12,52.24 59.8706667,52.3306667 59.508,52.512 C58.9413333,52.7386667 58.3973333,52.9256667 57.876,53.073 C57.3546667,53.2203333 56.7766667,53.294 56.142,53.294 C54.9633333,53.294 54.0453333,53.022 53.388,52.478 C52.7306667,51.934 52.3453333,51.016 52.232,49.724 L52.232,49.724 L60.902,49.724 C61.1286667,49.724 61.4743333,49.4576667 61.939,48.925 C62.4036667,48.3923333 62.636,47.99 62.636,47.718 C62.636,45.134 62.041,43.026 60.851,41.394 C59.661,39.762 57.808,38.946 55.292,38.946 C52.708,38.946 50.685,39.694 49.223,41.19 C47.761,42.686 47.03,45.032 47.03,48.228 C47.03,51.0613333 47.761,53.277 49.223,54.875 C50.685,56.473 52.912,57.272 55.904,57.272 Z M57.74,46.358 L52.232,46.358 C52.5946667,44.0686667 53.6146667,42.924 55.292,42.924 C56.108,42.924 56.72,43.2356667 57.128,43.859 C57.536,44.4823333 57.74,45.3153333 57.74,46.358 L57.74,46.358 Z M83.89,57.272 C84.6153333,57.272 85.4653333,57.1813333 86.44,57 C87.4146667,56.8186667 88.2533333,56.541 88.956,56.167 C89.6586667,55.793 90.01,55.3453333 90.01,54.824 C90.01,54.5973333 89.9136667,54.2743333 89.721,53.855 C89.5283333,53.4356667 89.2903333,53.0616667 89.007,52.733 C88.7236667,52.4043333 88.4686667,52.24 88.242,52.24 C88.106,52.24 87.8566667,52.3306667 87.494,52.512 C86.9273333,52.7386667 86.3833333,52.9256667 85.862,53.073 C85.3406667,53.2203333 84.7626667,53.294 84.128,53.294 C82.9493333,53.294 82.0313333,53.022 81.374,52.478 C80.7166667,51.934 80.3313333,51.016 80.218,49.724 L80.218,49.724 L88.888,49.724 C89.1146667,49.724 89.4603333,49.4576667 89.925,48.925 C90.3896667,48.3923333 90.622,47.99 90.622,47.718 C90.622,45.134 90.027,43.026 88.837,41.394 C87.647,39.762 85.794,38.946 83.278,38.946 C80.694,38.946 78.671,39.694 77.209,41.19 C75.747,42.686 75.016,45.032 75.016,48.228 C75.016,51.0613333 75.747,53.277 77.209,54.875 C78.671,56.473 80.898,57.272 83.89,57.272 Z M85.726,46.358 L80.218,46.358 C80.5806667,44.0686667 81.6006667,42.924 83.278,42.924 C84.094,42.924 84.706,43.2356667 85.114,43.859 C85.522,44.4823333 85.726,45.3153333 85.726,46.358 L85.726,46.358 Z M111.842,57.068 C113.202,57.068 113.882,56.7053333 113.882,55.98 L113.882,55.98 L113.882,37.654 L119.288,37.654 C119.650667,37.654 119.911333,37.518 120.07,37.246 C120.228667,36.974 120.308,36.5433333 120.308,35.954 L120.308,35.954 L120.308,34.9 C120.308,34.3106667 120.228667,33.88 120.07,33.608 C119.911333,33.336 119.650667,33.2 119.288,33.2 L119.288,33.2 L103.206,33.2 C102.843333,33.2 102.582667,33.336 102.424,33.608 C102.265333,33.88 102.186,34.3106667 102.186,34.9 L102.186,34.9 L102.186,35.954 C102.186,36.5433333 102.265333,36.974 102.424,37.246 C102.582667,37.518 102.843333,37.654 103.206,37.654 L103.206,37.654 L108.612,37.654 L108.612,55.98 C108.612,56.7053333 109.292,57.068 110.652,57.068 L110.652,57.068 L111.842,57.068 Z M133.3,57.068 C134.66,57.068 135.34,56.7053333 135.34,55.98 L135.34,55.98 L135.34,45.066 C135.612,44.6353333 135.980333,44.2443333 136.445,43.893 C136.909667,43.5416667 137.448,43.366 138.06,43.366 C138.309333,43.366 138.604,43.4113333 138.944,43.502 C139.284,43.5926667 139.522,43.638 139.658,43.638 C139.952667,43.638 140.202,43.281 140.406,42.567 C140.61,41.853 140.712,41.258 140.712,40.782 C140.712,40.17 140.581667,39.711 140.321,39.405 C140.060333,39.099 139.544667,38.946 138.774,38.946 C137.89,38.946 137.159,39.1783333 136.581,39.643 C136.003,40.1076667 135.498667,40.7366667 135.068,41.53 C135.045333,41.394 134.994333,41.1446667 134.915,40.782 C134.835667,40.4193333 134.716667,40.085 134.558,39.779 C134.399333,39.473 134.116,39.32 133.708,39.32 C133.005333,39.32 132.195,39.4106667 131.277,39.592 C130.359,39.7733333 129.9,40.0453333 129.9,40.408 C129.9,40.5666667 129.934,40.8046667 130.002,41.122 C130.092667,41.7793333 130.166333,42.3743333 130.223,42.907 C130.279667,43.4396667 130.308,44.2046667 130.308,45.202 L130.308,45.202 L130.308,55.98 C130.308,56.7053333 130.988,57.068 132.348,57.068 L132.348,57.068 L133.3,57.068 Z M160.266,57.272 C160.991333,57.272 161.841333,57.1813333 162.816,57 C163.790667,56.8186667 164.629333,56.541 165.332,56.167 C166.034667,55.793 166.386,55.3453333 166.386,54.824 C166.386,54.5973333 166.289667,54.2743333 166.097,53.855 C165.904333,53.4356667 165.666333,53.0616667 165.383,52.733 C165.099667,52.4043333 164.844667,52.24 164.618,52.24 C164.482,52.24 164.232667,52.3306667 163.87,52.512 C163.303333,52.7386667 162.759333,52.9256667 162.238,53.073 C161.716667,53.2203333 161.138667,53.294 160.504,53.294 C159.325333,53.294 158.407333,53.022 157.75,52.478 C157.092667,51.934 156.707333,51.016 156.594,49.724 L156.594,49.724 L165.264,49.724 C165.490667,49.724 165.836333,49.4576667 166.301,48.925 C166.765667,48.3923333 166.998,47.99 166.998,47.718 C166.998,45.134 166.403,43.026 165.213,41.394 C164.023,39.762 162.17,38.946 159.654,38.946 C157.07,38.946 155.047,39.694 153.585,41.19 C152.123,42.686 151.392,45.032 151.392,48.228 C151.392,51.0613333 152.123,53.277 153.585,54.875 C155.047,56.473 157.274,57.272 160.266,57.272 Z M162.102,46.358 L156.594,46.358 C156.956667,44.0686667 157.976667,42.924 159.654,42.924 C160.47,42.924 161.082,43.2356667 161.49,43.859 C161.898,44.4823333 162.102,45.3153333 162.102,46.358 L162.102,46.358 Z M188.252,57.272 C188.977333,57.272 189.827333,57.1813333 190.802,57 C191.776667,56.8186667 192.615333,56.541 193.318,56.167 C194.020667,55.793 194.372,55.3453333 194.372,54.824 C194.372,54.5973333 194.275667,54.2743333 194.083,53.855 C193.890333,53.4356667 193.652333,53.0616667 193.369,52.733 C193.085667,52.4043333 192.830667,52.24 192.604,52.24 C192.468,52.24 192.218667,52.3306667 191.856,52.512 C191.289333,52.7386667 190.745333,52.9256667 190.224,53.073 C189.702667,53.2203333 189.124667,53.294 188.49,53.294 C187.311333,53.294 186.393333,53.022 185.736,52.478 C185.078667,51.934 184.693333,51.016 184.58,49.724 L184.58,49.724 L193.25,49.724 C193.476667,49.724 193.822333,49.4576667 194.287,48.925 C194.751667,48.3923333 194.984,47.99 194.984,47.718 C194.984,45.134 194.389,43.026 193.199,41.394 C192.009,39.762 190.156,38.946 187.64,38.946 C185.056,38.946 183.033,39.694 181.571,41.19 C180.109,42.686 179.378,45.032 179.378,48.228 C179.378,51.0613333 180.109,53.277 181.571,54.875 C183.033,56.473 185.26,57.272 188.252,57.272 Z M190.088,46.358 L184.58,46.358 C184.942667,44.0686667 185.962667,42.924 187.64,42.924 C188.456,42.924 189.068,43.2356667 189.476,43.859 C189.884,44.4823333 190.088,45.3153333 190.088,46.358 L190.088,46.358 Z M212.872,57.272 C214.957333,57.272 216.589333,56.745 217.768,55.691 C218.946667,54.637 219.536,53.226 219.536,51.458 C219.536,49.9393333 219.150667,48.8003333 218.38,48.041 C217.609333,47.2816667 216.634667,46.6866667 215.456,46.256 C214.390667,45.8706667 213.654,45.5476667 213.246,45.287 C212.838,45.0263333 212.634,44.6466667 212.634,44.148 C212.634,43.3093333 213.234667,42.89 214.436,42.89 C215.184,42.89 215.852667,43.009 216.442,43.247 C217.031333,43.485 217.371333,43.604 217.462,43.604 C217.756667,43.604 218.074,43.264 218.414,42.584 C218.754,41.904 218.924,41.3486667 218.924,40.918 C218.924,40.2833333 218.374333,39.796 217.275,39.456 C216.175667,39.116 215.025333,38.946 213.824,38.946 C211.92,38.946 210.412667,39.439 209.302,40.425 C208.191333,41.411 207.636,42.7766667 207.636,44.522 C207.636,45.5873333 207.845667,46.4656667 208.265,47.157 C208.684333,47.8483333 209.177333,48.3696667 209.744,48.721 C210.310667,49.0723333 210.990667,49.418 211.784,49.758 C212.849333,50.2113333 213.574667,50.5626667 213.96,50.812 C214.345333,51.0613333 214.538,51.4126667 214.538,51.866 C214.538,52.3193333 214.362333,52.6706667 214.011,52.92 C213.659667,53.1693333 213.144,53.294 212.464,53.294 C211.942667,53.294 211.483667,53.2316667 211.087,53.107 C210.690333,52.9823333 210.254,52.818 209.778,52.614 C209.460667,52.4326667 209.211333,52.342 209.03,52.342 C208.69,52.342 208.304667,52.665 207.874,53.311 C207.443333,53.957 207.228,54.5066667 207.228,54.96 C207.228,55.64 207.817333,56.1953333 208.996,56.626 C210.174667,57.0566667 211.466667,57.272 212.872,57.272 Z" id="FreeTrees" fill="#53AF4A"></path>
            <g id="sprout" transform="translate(66.416000, 0.000000)">
                <path d="M47.0922945,38.9384181 C46.4163109,39.6703692 45.4607717,40.0559572 44.4776376,39.9934195 C44.1376619,39.9712167 36.0552572,39.4013457 27.7883457,34.8314618 C19.9762984,30.5130242 10.5491408,21.7499633 10.0017528,4.52727913 C9.97199369,3.58828723 10.3222499,2.67834394 10.9697368,2.0137412 C11.9571995,1 13.1167242,1 13.6114475,1 C13.6116279,1 13.6116279,1 13.6116279,1 C13.9618841,1 22.194347,1.06068756 30.6769672,6.27852215 C35.0804196,8.98725937 38.7415164,12.5885477 41.5585356,16.9821047 C44.9615394,22.2900455 47.1211519,28.7567856 47.9771333,36.2030376 C48.0923823,37.2043822 47.7680978,38.206467 47.0922945,38.9384181 Z" id="Path" fill="#53AF4A"></path>
                <path d="M41.462438,17 C40.0294828,19.6473759 38.8209037,22.6288631 37.9537258,25.9878551 C37.1739913,28.3191848 35.9829008,32.4154939 35,38.082722 C40.1844622,39.7069053 44.1276006,39.9782544 44.3664885,39.9933397 C45.3806456,40.0564744 46.3663372,39.668354 47.0636516,38.9314095 C47.76078,38.194465 48.0952975,37.1859852 47.9764117,36.1778778 C47.102536,28.7609418 44.9097537,22.3111408 41.462438,17 Z" id="Path" fill="#45923E"></path>
                <path d="M80.073135,2.0578476 C79.3827935,1.32847123 78.4069586,0.944239595 77.4029427,1.00655739 C77.0557459,1.02868206 68.8016711,1.59654839 60.3591705,6.150357 C53.8716552,9.64974108 46.2941076,16.0775086 43.3881531,27.5849142 C41.8009939,32.2635428 38.3045286,44.9512991 39.1221448,64.0552075 C39.1930577,65.7079197 40.553664,67 42.1905543,67 C42.2347597,67 42.2797019,66.9990781 42.3242757,66.9972344 C44.0201066,66.9244074 45.3359549,65.4894387 45.2633843,63.7915552 C44.8397489,53.8946407 45.6538656,45.8040204 46.7028237,39.8338647 C49.0635778,39.6983511 56.0972144,38.9313628 63.3089621,34.602857 C67.8059437,31.9036482 71.5448022,28.315028 74.4216548,23.9369261 C77.8969384,18.6476569 80.1024211,12.2036646 80.9765834,4.78360599 C81.0944646,3.78615246 80.7632922,2.78740833 80.073135,2.0578476 Z" id="Path" fill="#53AF4A"></path>
                <path d="M76.6947449,74.7206145 C75.2946592,74.7206145 73.9870613,75.1204206 72.8755665,75.8127768 C71.2339546,70.3686089 66.2397987,66.4082726 60.331893,66.4082726 C59.6762698,66.4082726 59.032504,66.458572 58.4029671,66.5526984 C55.7248357,60.3420198 49.6140772,56 42.5001824,56 C35.3862876,56 29.2755291,60.3418348 26.5973977,66.5526984 C25.9676784,66.458572 25.3237302,66.4082726 24.6684718,66.4082726 C18.7605662,66.4082726 13.7662278,70.3686089 12.1247983,75.8127768 C11.0133036,75.1204206 9.70588804,74.7206145 8.3056199,74.7206145 C4.27081914,74.7206145 1,78.0363051 1,82.1264582 C1,86.2166112 4.27081914,89.5323018 8.3056199,89.5323018 C10.467863,89.5323018 12.4097409,88.5795724 13.747256,87.0663378 C16.098123,90.6425865 20.1110332,93 24.6682894,93 C28.3590431,93 31.6915207,91.4523695 34.0746764,88.9651393 C36.5698389,90.3733369 39.4415196,91.1783119 42.5,91.1783119 C45.5584804,91.1783119 48.4301611,90.373152 50.9253236,88.9651393 C53.3086617,91.4523695 56.6411394,93 60.3317106,93 C64.8889668,93 68.901877,90.6427715 71.252744,87.0663378 C72.5904415,88.5795724 74.5323194,89.5323018 76.6943801,89.5323018 C80.7291809,89.5323018 84,86.2166112 84,82.1264582 C84,78.03649 80.7293633,74.7206145 76.6947449,74.7206145 Z" id="Path" fill="#CC7400"></path>
                <g id="Group" transform="translate(1.000000, 56.000000)" fill="#AA6100">
                    <path d="M51.4039221,7.22438806 C53.1386809,7.22438806 54.8127286,7.4820995 56.3943342,7.95518408 C53.2755101,3.19893532 47.9114774,0.056880597 41.8139598,0.056880597 C34.6612437,0.056880597 28.5171382,4.37888557 25.824392,10.5613831 C25.1912362,10.4676866 24.5437739,10.4176169 23.8849397,10.4176169 C17.944794,10.4176169 12.923201,14.3598657 11.2728141,19.7791692 C10.1552538,19.0899751 8.84070352,18.691995 7.43279397,18.691995 C3.37597487,18.691995 0.0873065327,21.9925423 0.0873065327,26.0640149 C0.0873065327,30.1354876 3.37597487,33.4360348 7.43279397,33.4360348 C9.60683668,33.4360348 11.5593116,32.4876567 12.9041256,30.9813333 C15.2678216,34.5412488 19.3026307,36.8878955 23.8847563,36.8878955 C27.5956508,36.8878955 30.9463141,35.3473333 33.3424749,32.8714627 C34.4365578,33.482607 35.6027236,33.9796219 36.8248317,34.3457562 C35.0146884,31.5860348 33.958206,28.2840149 33.958206,24.7329353 C33.9583894,15.0632338 41.7690226,7.22438806 51.4039221,7.22438806 Z" id="Path"></path>
                    <ellipse id="Oval" cx="48.7518945" cy="20.6369801" rx="3.1626608" ry="3.17408458"></ellipse>
                    <ellipse id="Oval" cx="61.5034171" cy="28.1115323" rx="3.1626608" ry="3.17408458"></ellipse>
                    <ellipse id="Oval" cx="59.5586457" cy="17.2506517" rx="1.21697236" ry="1.22136816"></ellipse>
                    <ellipse id="Oval" cx="41.8139598" cy="29.3330846" rx="1.21697236" ry="1.22136816"></ellipse>
                    <ellipse id="Oval" cx="45.5881332" cy="12.6860299" rx="1.21697236" ry="1.22136816"></ellipse>
                    <ellipse id="Oval" cx="71.7742236" cy="23.8119851" rx="1.21697236" ry="1.22136816"></ellipse>
                </g>
                <path d="M47.3742083,36 C47.7201592,36 48.0661102,35.8673636 48.3333375,35.6007977 L55.0450752,28.9046919 L65.122793,28.7286439 C65.8816824,28.7153433 66.4860132,28.0754374 66.4731935,27.2990157 C66.4603738,26.5307222 65.8477373,25.9172327 65.0998621,25.9172327 C65.0917369,25.9172327 65.0837923,25.9172327 65.0758477,25.9174174 L57.913796,26.0424799 L62.6047178,21.3625212 L72.5742808,21.1881357 C73.3331701,21.1748351 73.937501,20.5349292 73.9246813,19.7585075 C73.9118616,18.990214 73.299225,18.3767245 72.5513498,18.3767245 C72.5432247,18.3767245 72.5352801,18.3767245 72.5273355,18.3769092 L65.4734385,18.5003091 L75.5852821,8.4119999 C76.128584,7.87000105 76.1394175,6.97997022 75.6098381,6.42430133 C75.079717,5.86863243 74.2097839,5.85717915 73.6668431,6.399178 L64.4713363,15.5734414 L65.591163,9.86434993 C65.7403047,9.10344561 65.2583928,8.36230744 64.5143093,8.20953544 C63.7711287,8.05768709 63.0460039,8.54999348 62.8968622,9.31126725 L60.9863678,19.0500666 L57.0454879,22.9818674 L58.1394947,17.4046734 C58.2888169,16.6437691 57.8067245,15.9026309 57.062641,15.7498589 C56.3189187,15.5974564 55.5943355,16.0903169 55.4451938,16.8515907 L53.5607,26.4586774 L46.4147179,33.5877911 C45.871416,34.1297899 45.8605825,35.0198208 46.3901619,35.5756744 C46.6595559,35.8581271 47.016521,36 47.3742083,36 Z" id="Path" fill="#403B47"></path>
                <path d="M19.5548013,27.6922216 C20.0758883,27.1929124 20.1693712,26.4336637 19.6756537,25.9104672 C19.2425401,25.4514676 18.8216895,24.9745527 18.4246539,24.492827 C17.9695026,23.9404351 17.1205146,23.836592 16.5279826,24.2617514 C15.9359836,24.6867448 15.8250838,25.4793361 16.2804129,26.0320598 C16.7137042,26.5580763 17.173121,27.0787845 17.645867,27.5794209 C17.9129863,27.8624181 18.9164164,28.303834 19.5548013,27.6922216 Z" id="Path" fill="#403B47"></path>
                <path d="M49.5,72 C47.0185901,72 45,74.0187711 45,76.5 C45,78.9814099 47.0187711,81 49.5,81 C51.9814099,81 54,78.9812289 54,76.5 C54,74.0187711 51.9814099,72 49.5,72 Z M49.5,78.2444471 C48.5381458,78.2444471 47.7557339,77.4620352 47.7557339,76.5001811 C47.7557339,75.5383269 48.5381458,74.755915 49.5,74.755915 C50.4618542,74.755915 51.2442661,75.5383269 51.2442661,76.5001811 C51.2442661,77.4620352 50.4618542,78.2444471 49.5,78.2444471 Z" id="Shape" fill="#403B47"></path>
                <path d="M62.5000905,79 C61.7388794,79 61.1221607,79.6167062 61.1221607,80.3779021 C61.1221607,81.1390979 61.7388794,81.7558041 62.5000905,81.7558041 C63.4619254,81.7558041 64.2445026,82.5381845 64.2445026,83.5 C64.2445026,84.4618155 63.4619254,85.2443769 62.5000905,85.2443769 C61.5382557,85.2443769 60.7558596,84.4618155 60.7558596,83.5 C60.7558596,82.7388042 60.1391409,82.1220979 59.3779298,82.1220979 C58.6167186,82.1220979 58,82.7388042 58,83.5 C58,85.9814912 60.0187305,88 62.4999095,88 C64.9814506,88 67,85.9813101 67,83.5 C67.0001811,81.0185088 64.9814506,79 62.5000905,79 Z" id="Path" fill="#403B47"></path>
                <path d="M77.2833859,73.0581953 C76.2333831,73.0581953 75.1991093,73.2476641 74.22702,73.612832 C70.4180394,64.1555508 60.1466311,64.8199766 59.7795599,64.8478828 C57.2647475,59.8388945 52.6885205,56.2670781 47.3633367,54.99 C47.5100188,50.2810039 47.9376284,45.7087852 48.6443364,41.3759727 C51.8870727,41.0640469 58.1801393,39.9566094 64.6593934,36.0563437 C69.3054864,33.2594766 73.1686041,29.5411523 76.140838,25.004918 C79.7116887,19.5545703 81.9753857,12.9343633 82.8690128,5.32880859 C83.034899,3.91954297 82.5723564,2.52019141 81.6000842,1.49004688 C80.6292752,0.4611875 79.258108,-0.0782109375 77.849996,0.009546875 C77.4924354,0.0324960938 68.99493,0.622199219 60.3540345,5.2963125 C54.3519546,8.54280078 49.3058692,13.9017188 45.7231303,20.7249805 C45.0017907,19.2417266 44.2012573,17.8225469 43.3270171,16.4883711 C40.3544174,11.9517695 36.4912997,8.23362891 31.8453895,5.43694531 C22.9158851,0.0618710937 14.1912236,0 13.8243353,0 C13.2077947,0 11.5703318,0 10.1609395,1.41550781 C9.23585431,2.34449219 8.72978261,3.63038281 8.77294594,4.94289453 C8.97778884,11.2500742 10.4038246,16.9416641 13.0117308,21.8594062 C13.3725835,22.5401719 14.215,22.7988555 14.8942737,22.4360742 C15.5726329,22.0736602 15.8299668,21.2274766 15.4687483,20.5463437 C13.0623929,16.0088242 11.7455456,10.7284844 11.5547857,4.85146484 C11.5370448,4.30784375 11.7464601,3.77560547 12.1296261,3.39060937 C12.7234876,2.79411328 13.4126377,2.79411328 13.8245182,2.79411328 C14.1601313,2.79411328 22.137665,2.85157812 30.4140498,7.83339453 C34.6987414,10.4121523 38.2606303,13.8409492 41.0016843,18.023582 C42.2087943,19.8659453 43.269405,21.8840078 44.1555334,24.0221406 C43.6831145,25.1248047 43.2445312,26.2575781 42.8450876,27.4208281 C42.5705615,28.2321289 42.2609195,29.2150898 41.9360972,30.3623672 L37.6559779,26.1725742 L35.7470981,16.6245977 C35.5960265,15.8680078 34.8626157,15.3781797 34.1087207,15.5296445 C33.3550086,15.6814766 32.8668606,16.4180547 33.0179323,17.1742773 L34.1260958,22.7171562 L30.1340368,18.8095469 L28.199003,9.13066797 C28.0479314,8.37407812 27.3141548,7.88461719 26.5606256,8.03571484 C25.8069134,8.18773047 25.3187655,8.92394141 25.4698371,9.68034766 L26.6041547,15.3544961 L17.2892896,6.2363125 C16.7385914,5.69764844 15.8579498,5.70903125 15.3211516,6.26128125 C14.7845364,6.81371484 14.795693,7.69826953 15.3460254,8.23675 L25.5887192,18.2629883 L18.4435427,18.1403477 C17.6755647,18.1192344 17.0412833,18.7418008 17.0281149,19.5134453 C17.0151293,20.2850898 17.6272803,20.9210586 18.3959899,20.9342773 L28.4945621,21.1075898 L33.2461858,25.7587539 L25.9916379,25.6344609 C25.2300612,25.6173867 24.5893785,26.2359141 24.57621,27.0075586 C24.5632244,27.7792031 25.1753755,28.4151719 25.944085,28.4283906 L36.1520287,28.6033555 L41.128248,33.4742812 C40.8112902,34.8073555 40.4954297,36.2828984 40.1969444,37.9043984 C37.1802669,37.2363008 33.0426231,35.9990625 28.8609016,33.7373711 C26.7513855,32.5963359 24.7880029,31.2729922 23.0254395,29.8046094 C22.4339556,29.3116602 21.5564232,29.3933594 21.0657148,29.9871016 C20.5746405,30.5808438 20.6562119,31.461543 21.2475128,31.9543086 C23.1516373,33.5411094 25.2690179,34.9685508 27.5403965,36.1969766 C32.0584627,38.6409766 36.5163564,39.9591797 39.7303781,40.6619766 C39.1023151,44.7208672 38.614533,49.5216602 38.4630955,55.0298398 C33.2118014,56.342168 28.7078181,59.8925039 26.2202572,64.8475156 C25.8530031,64.8196094 16.0922389,63.7650469 11.7727971,73.6124648 C10.8008907,73.2472969 9.76643401,73.0578281 8.71643124,73.0578281 C3.91030467,73.0578281 0,76.9828789 0,81.8075391 C0,86.6321992 3.91012177,90.55725 8.71643124,90.55725 C10.6278716,90.55725 12.4754814,89.9231172 13.978882,88.7807969 C16.7285321,92.0750195 20.7875308,94 25.1216042,94 C28.732509,94 32.1294262,92.6928125 34.795676,90.2985664 C37.3413977,91.539293 40.1568903,92.191418 43,92.191418 C45.8431097,92.191418 48.6586023,91.5394766 51.204324,90.2985664 C53.8703909,92.6929961 57.267491,94 60.8783958,94 C65.2124692,94 69.2716508,92.0750195 72.021118,88.7807969 C73.5245186,89.9233008 75.3723113,90.55725 77.2835688,90.55725 C82.0896953,90.55725 86,86.6321992 86,81.8075391 C86,76.9828789 82.0895124,73.0581953 77.2833859,73.0581953 Z M45.4784162,28.3253945 C48.690609,18.9727617 54.4424879,11.66775 61.6745397,7.75591797 C69.7854041,3.36839453 77.694169,2.81908203 78.0244782,2.79815234 C78.6115726,2.76235156 79.1772682,2.98541797 79.5792724,3.41135547 C79.9820082,3.83821094 80.1734997,4.41744922 80.104731,5.00146094 C79.2623146,12.1718984 77.1462143,18.3856289 73.8149566,23.469707 C71.0742683,27.6523398 67.5121966,31.0809531 63.2275049,33.6600781 C56.2396186,37.8662109 49.3265364,38.5601953 47.3739446,38.6725547 C46.7292382,38.7096406 46.1948177,39.1869844 46.0828857,39.8253398 C45.2651601,44.4933945 44.7675016,49.4401445 44.5930193,54.5429492 C44.0659147,54.4979687 43.5349692,54.4722656 42.9992684,54.4722656 C42.4145517,54.4722656 41.8345902,54.5021914 41.2599327,54.5558008 C41.701991,40.859707 44.3391605,31.6928711 45.4784162,28.3253945 Z M77.2833859,87.7633203 C75.6000162,87.7633203 73.989256,87.0403281 72.8642661,85.779957 C72.5765715,85.4579336 72.155912,85.288293 71.7283024,85.3187695 C71.2990468,85.3494297 70.9080164,85.5780039 70.6695207,85.9374805 C68.4795306,89.2364766 64.8194269,91.2058867 60.8782129,91.2058867 C57.6757136,91.2058867 54.6809836,89.9337656 52.4454525,87.6239727 C52.1764133,87.3458281 51.8137316,87.2004219 51.4464776,87.2004219 C51.2154806,87.2004219 50.9824718,87.2582539 50.7699473,87.3768555 C48.4045605,88.6989141 45.7176435,89.3976719 43,89.3976719 C40.2823565,89.3976719 37.5954395,88.6989141 35.2300527,87.3768555 C34.6797203,87.0693359 33.9929479,87.1710469 33.5547304,87.6239727 C31.3193822,89.9337656 28.3244693,91.2058867 25.12197,91.2058867 C21.1809389,91.2058867 17.5206523,89.2364766 15.3306622,85.9374805 C15.0919836,85.5780039 14.7009532,85.3496133 14.2718805,85.3187695 C13.8451854,85.2886602 13.4234285,85.4581172 13.1359168,85.779957 C12.010744,87.0405117 10.3999838,87.7633203 8.71679703,87.7633203 C5.44534616,87.7633203 2.78385161,85.0916641 2.78385161,81.8077227 C2.78385161,78.5237812 5.44534616,75.852125 8.71679703,75.852125 C9.81453551,75.852125 10.8864857,76.1556055 11.8170578,76.7297031 C12.1843118,76.9564414 12.6347833,76.9988516 13.0380678,76.8462852 C13.4409864,76.6933516 13.7508113,76.3614141 13.8768263,75.9477773 C15.3972362,70.9543945 19.9163998,67.5995859 25.12197,67.5995859 C25.6953472,67.5995859 26.2778692,67.6425469 26.8528925,67.727918 C27.4736397,67.8189805 28.0799381,67.4831875 28.3314193,66.9052344 C30.8811647,61.0495117 36.6392621,57.2660117 43.0001829,57.2660117 C49.3611037,57.2660117 55.119201,61.0496953 57.6689465,66.9052344 C57.9202448,67.4828203 58.5258117,67.8193477 59.1474733,67.727918 C59.7226795,67.6425469 60.3050186,67.5995859 60.8783958,67.5995859 C66.083966,67.5995859 70.6031296,70.9543945 72.1235395,75.9477773 C72.2495545,76.3615977 72.5593793,76.6933516 72.962298,76.8462852 C73.3657654,76.9990352 73.8162369,76.9564414 74.183308,76.7297031 C75.1138801,76.1556055 76.1860132,75.852125 77.2835688,75.852125 C80.5550196,75.852125 83.2165142,78.5237812 83.2165142,81.8077227 C83.2165142,85.0918477 80.5548367,87.7633203 77.2833859,87.7633203 Z" id="Shape" fill="#403B47"></path>
            </g>
        </g>
    </g>
</svg>