<?xml version="1.0"?>
<svg xmlns="http://www.w3.org/2000/svg" viewBox="0 0 64 64" width="512px" height="512px" class=""><g><g id="outline"><path d="M57,16a5.009,5.009,0,0,0-4.9,4H35.537a10.484,10.484,0,0,0-2.532-2.69A6,6,0,1,0,22,14a6.1,6.1,0,0,0,.106,1.119,17.4,17.4,0,0,0-5.6,2.014,14.159,14.159,0,0,0-4.29,3.794A6,6,0,1,0,9,32a6.074,6.074,0,0,0,.757-.059A12.7,12.7,0,0,0,11.133,35.5,10.411,10.411,0,0,0,13.161,38H2V50H25v1a4.985,4.985,0,0,0,9,2.969A4.985,4.985,0,0,0,43,51V50h9v1a5,5,0,0,0,10,0V29a8.946,8.946,0,0,0-1.3-4.647A4.954,4.954,0,0,0,62,21,5.006,5.006,0,0,0,57,16Zm0,2a3,3,0,0,1,3,3,2.962,2.962,0,0,1-.561,1.718,8.886,8.886,0,0,0-5.279-2.639A2.993,2.993,0,0,1,57,18ZM24,14a4,4,0,0,1,8,0,3.963,3.963,0,0,1-.7,2.249c-.1-.05-.207-.094-.31-.142,0-.037.009-.07.009-.107,0-2.243-1.317-4-3-4-1.367,0-2.5,1.2-2.87,2.862-.341,0-.682.005-1.024.024A4.094,4.094,0,0,1,24,14Zm4.934,1.363a14.055,14.055,0,0,0-1.674-.357c-.035-.005-.07-.006-.1-.011.205-.622.571-.995.844-.995C28.322,14,28.772,14.527,28.934,15.363ZM5,26a4,4,0,0,1,6.13-3.389c-.072.132-.15.261-.218.395C8.712,23.041,7,24.34,7,26a3.1,3.1,0,0,0,2.456,2.762c-.011.4,0,.8.024,1.2A4.009,4.009,0,0,1,5,26Zm4.662.709C9.25,26.506,9,26.231,9,26c0-.28.4-.657,1.053-.858A13.54,13.54,0,0,0,9.662,26.709ZM17.5,18.867a15.338,15.338,0,0,1,7.531-2.02,13.614,13.614,0,0,1,1.944.138A9.534,9.534,0,0,1,34.133,21.5,11.551,11.551,0,0,1,29.5,37.133a15.06,15.06,0,0,1-9.475,1.882A9.534,9.534,0,0,1,12.867,34.5,11.551,11.551,0,0,1,17.5,18.867ZM33.1,38h-1.28A14.165,14.165,0,0,0,34.1,35.914,4.954,4.954,0,0,0,33.1,38ZM4,48V44h8V42H4V40H16.261a13.477,13.477,0,0,0,3.479.994,15.3,15.3,0,0,0,2.221.158A17.3,17.3,0,0,0,28.084,40H33v2H31v2h2v4Zm26,6a3,3,0,0,1-3-3V50h6v1A3,3,0,0,1,30,54Zm11-3a3,3,0,0,1-6,0V39a3,3,0,0,1,6,0Zm2-3V44h2V42H43V40h9v2H48v2h4v4Zm17,3a3,3,0,0,1-6,0V39a3,3,0,0,1,3-3h3ZM57,34a5.009,5.009,0,0,0-4.9,4H42.9a4.99,4.99,0,0,0-8.377-2.58A13.372,13.372,0,0,0,36.588,22H53a7,7,0,0,1,7,7v5Z" data-original="#000000" class="active-path" data-old_color="#000000" fill="#EA6B38"/><rect x="14" y="42" width="2" height="2" data-original="#000000" class="active-path" data-old_color="#000000" fill="#EA6B38"/><rect x="18" y="44" width="11" height="2" data-original="#000000" class="active-path" data-old_color="#000000" fill="#EA6B38"/><rect x="48" y="24" width="2" height="2" data-original="#000000" class="active-path" data-old_color="#000000" fill="#EA6B38"/><rect x="52" y="27" width="2" height="2" data-original="#000000" class="active-path" data-old_color="#000000" fill="#EA6B38"/><path d="M32.867,25.5c-1.342-2.342-6.942-3.759-9.364-2.37a3.022,3.022,0,0,0-1.653,2.682,3.955,3.955,0,0,0-3.347.318,6.387,6.387,0,0,0-2.594,3.782,6.036,6.036,0,0,0,.224,4.582,4.083,4.083,0,0,0,2.893,2.119,4.192,4.192,0,0,0,.7.059,5.6,5.6,0,0,0,2.769-.808,4.876,4.876,0,0,0,.806-.584c.033.07.056.142.094.209a2.98,2.98,0,0,0,1.818,1.4,3.017,3.017,0,0,0,.79.106,3,3,0,0,0,2.6-4.494c-.045-.077-.1-.142-.153-.215a4.162,4.162,0,0,0,1.048-.426A9.955,9.955,0,0,0,32.434,29.4,3.425,3.425,0,0,0,32.867,25.5Zm-8.37-.636a3.249,3.249,0,0,1,1.527-.291,9.194,9.194,0,0,1,3.443.731l-4.874,2.7a6.014,6.014,0,0,1-.731-1.93A1.084,1.084,0,0,1,24.5,24.867Zm-5,3a2.047,2.047,0,0,1,1.023-.287,2.09,2.09,0,0,1,.872.2,3.8,3.8,0,0,1,1.449,1.277l-5.256,3.379C17.471,30.818,18.325,28.54,19.5,27.867ZM21.5,34.133a2.73,2.73,0,0,1-3.022.1l4.9-3.154a4.032,4.032,0,0,1-.2.89A4.083,4.083,0,0,1,21.5,34.133Zm5.462.13A1,1,0,1,1,26,33a1.035,1.035,0,0,1,.264.035.987.987,0,0,1,.6.468h0A.992.992,0,0,1,26.965,34.263Zm1.538-4.13a1.985,1.985,0,0,1-1.895.088,3.272,3.272,0,0,1-.837-.579l5.422-3C31.7,27.878,29.773,29.4,28.5,30.133Z" data-original="#000000" class="active-path" data-old_color="#000000" fill="#EA6B38"/></g></g> </svg>
