<?xml version="1.0"?>
<svg xmlns="http://www.w3.org/2000/svg" height="512px" viewBox="-21 -40 673.74954 673" width="512px"><g><path d="m283.917969 591.191406c-157.332031 0-285.332031-128-285.332031-285.328125s128-285.328125 285.332031-285.328125c32.132812 0 63.683593 5.308594 93.789062 15.78125 5.542969 1.929688 8.476563 7.992188 6.546875 13.542969-1.929687 5.546875-7.964844 8.496094-13.539062 6.550781-27.851563-9.683594-57.042969-14.597656-86.796875-14.597656-145.601563 0-264.058594 118.457031-264.058594 264.0625 0 145.59375 118.457031 264.046875 264.058594 264.046875 145.597656 0 264.042969-118.453125 264.042969-264.046875 0-35.28125-6.832032-69.523438-20.328126-101.773438-2.261718-5.425781.292969-11.652343 5.71875-13.921874 5.414063-2.234376 11.652344.296874 13.917969 5.707031 14.578125 34.878906 21.96875 71.886719 21.96875 109.988281.003907 157.316406-127.996093 285.316406-285.320312 285.316406zm0 0" data-original="#000000" class="active-path" data-old_color="#000000" fill="#EA6B38"/><path d="m496.898438 253.886719c-3.175782 0-6.183594-1.417969-8.207032-3.867188l-107.902344-130.609375c-17.78125-21.503906-22.167968-51.082031-11.445312-77.1875 10.234375-24.9375 31.996094-41.414062 58.203125-44.074218 2.808594-.28125 5.648437-.433594 8.535156-.433594 23.269531 0 45.144531 9.617187 60.816407 26.25 15.660156-16.632813 37.535156-26.25 60.800781-26.25 2.886719 0 5.734375.152344 8.535156.4375 26.210937 2.65625 47.96875 19.132812 58.207031 44.070312 10.71875 26.105469 6.335938 55.683594-11.4375 77.195313l-107.90625 130.601562c-2.023437 2.449219-5.03125 3.867188-8.199218 3.867188zm-60.816407-234.898438c-2.15625 0-4.285156.109375-6.386719.324219-18.265624 1.851562-33.464843 13.4375-40.671874 30.984375-7.730469 18.828125-4.601563 40.121094 8.160156 55.566406v.007813l99.714844 120.683594 99.703124-120.683594c12.765626-15.453125 15.894532-36.738282 8.15625-55.574219-7.199218-17.546875-22.40625-29.128906-40.671874-30.980469-2.097657-.21875-4.226563-.320312-6.386719-.320312-20.921875 0-40.339844 10.433594-51.945313 27.910156-3.929687 5.933594-13.769531 5.941406-17.71875 0-11.605468-17.488281-31.035156-27.917969-51.953125-27.917969zm0 0" data-original="#000000" class="active-path" data-old_color="#000000" fill="#EA6B38"/><path d="m315.976562 589.175781c-.160156 0-.292968-.003906-.40625-.019531l-33.972656-2.914062c-3.175781-.273438-6.070312-1.957032-7.867187-4.59375-1.804688-2.628907-2.324219-5.925782-1.433594-8.996094l23.914063-81.621094c.175781-.605469.410156-1.199219.695312-1.765625.316406-.722656 9.628906-23.003906-26.738281-53.324219-33.117188-27.589844-31.914063-58.738281-23.976563-78.222656-33.183594-14.117188-45.617187-27.890625-57.6875-41.253906-6.195312-6.871094-12.054687-13.355469-20.96875-20.046875-7.964844-5.964844-15.363281-10.074219-22-12.203125-25.257812-8.09375-48.863281-21.886719-68.28125-39.902344-26.519531-24.609375-46.699218-47.828125-47.550781-48.808594-1.378906-1.589844-2.25-3.539062-2.507813-5.628906l-.464843-3.671875c-.261719-2.054687.085937-4.152344 1.003906-6.019531 38.167969-77.636719 108.296875-133.1875 192.414063-152.410156 4.6875-1.050782 9.53125 1.148437 11.769531 5.402343.917969 1.722657 1.304687 3.601563 1.222656 5.457031 4.589844 12.3125 40.988281 69.507813 63.375 99.359376 13.328125 17.761718 10.585937 40.457031-7.734375 63.914062-9.476562 12.136719-16.171875 25.851562-19.890625 40.730469-.785156 3.140625-2.9375 5.742187-5.875 7.085937-2.925781 1.351563-6.320313 1.296875-9.199219-.144531l-14.722656-7.359375c-.675781-.339844-1.308594-.742188-1.894531-1.210938-5.976563-4.734374-16.976563-10.355468-21.96875-8.480468-3.003907 1.101562-4.492188 6.503906-5.117188 9.621094-5.960937 29.765624 30.351563 53.429687 46.238281 62.214843 10.578126 5.84375 20.628907 7.679688 29.859376 5.464844 21.425781-5.164063 40.058593-5.828125 56.976562-2.050781 30.792969 6.894531 50.222656 19.925781 57.757812 38.753906 7.855469 19.652344 26.492188 23.453125 40.773438 23.347656 11.964844-.203125 22.484375 5.070313 28.851562 13.980469l.011719.003906c4.332031 6.085938 12.460938 22.183594-5.742187 40.386719-5.546875 5.546875-9.355469 10.902344-11.332032 15.925781-8.53125 21.667969-20.667968 40.722657-36.09375 56.625-38.769531 39.96875-87.074218 84.480469-92.457031 89.421875-1.636719 1.507813-3.710937 2.46875-5.921875 2.734375-.617187.082031-2.171875.21875-3.058594.21875zm-19.613281-23.011719 17.355469 1.492188c12.429688-11.484375 54.210938-50.394531 88.414062-85.65625 13.464844-13.878906 24.082032-30.558594 31.570313-49.601562 3.054687-7.765626 8.464844-15.566407 16.09375-23.191407 7.421875-7.417969 4.945313-10.894531 3.457031-12.972656-2.28125-3.191406-6.699218-5.210937-11.25-5.070313-29.15625.328126-51.328125-12.996093-60.816406-36.722656-5.9375-14.84375-26.464844-22.269531-42.640625-25.890625-13.691406-3.074219-29.15625-2.429687-47.34375 1.964844-10.035156 2.402344-25.988281 3.070313-45.144531-7.527344-42.234375-23.363281-62.941406-54.347656-56.804688-85.003906 3.316406-16.605469 12.007813-22.996094 18.710938-25.4375 16.992187-6.210937 36.613281 7.367187 41.570312 11.121094l2.53125 1.257812c4.664063-12.984375 11.339844-25.078125 19.949219-36.105469 12.191406-15.613281 14.710937-28.421874 7.488281-38.054687-11.148437-14.859375-28.832031-40.972656-43.003906-63.5-10.734375-17.058594-17.4375-28.429687-21.191406-36.363281-72.015625 19.261718-132.027344 67.667968-166.292969 134.320312 6.6875 7.464844 23.078125 25.285156 42.707031 43.496094 17.148438 15.90625 37.996094 28.097656 60.304688 35.242188 8.898437 2.855468 18.414062 8.050781 28.273437 15.449218 10.558594 7.914063 17.386719 15.484375 23.992188 22.800782 12.179687 13.484374 23.683593 26.222656 60.667969 40.09375 3.125 1.175781 5.511718 3.734374 6.46875 6.925781.945312 3.199219.347656 6.648437-1.625 9.335937-2.226563 3.117188-21.070313 31.828125 13.980468 61.039063 45.6875 38.074219 35.394532 71.339843 32.664063 78.003906zm-66.597656-520.230468c-.011719.007812-.015625.011718-.015625.019531 0-.007813.003906-.011719.015625-.019531zm.023437-.015625c-.011718.003906-.015624.003906-.023437.015625.007813-.011719.011719-.011719.023437-.015625zm.316407-.3125c-.109375.101562-.210938.203125-.316407.3125.105469-.109375.214844-.210938.316407-.3125zm.015625-.019531c-.007813.007812-.007813.007812-.015625.015624.007812 0 .015625-.007812.015625-.015624zm.019531-.015626-.011719.003907zm0 0" data-original="#000000" class="active-path" data-old_color="#000000" fill="#EA6B38"/><path d="m580.339844 81.023438c-5.875 0-10.636719-4.761719-10.636719-10.636719 0-8.800781-7.152344-15.953125-15.957031-15.953125-5.871094 0-10.632813-4.761719-10.632813-10.636719 0-5.878906 4.761719-10.640625 10.632813-10.640625 20.53125 0 37.234375 16.703125 37.234375 37.230469 0 5.875-4.769531 10.636719-10.640625 10.636719zm0 0" data-original="#000000" class="active-path" data-old_color="#000000" fill="#EA6B38"/></g> </svg>
