<?xml version="1.0"?>
<svg xmlns="http://www.w3.org/2000/svg" xmlns:xlink="http://www.w3.org/1999/xlink" version="1.1" id="Capa_1" x="0px" y="0px" viewBox="0 0 194.56 194.56" style="enable-background:new 0 0 194.56 194.56;" xml:space="preserve" width="512px" height="512px" class=""><g><g>
	<g>
		<path d="M191.147,18.774H92.16c-1.884,0-3.413,1.529-3.413,3.413V189.44c0,1.884,1.529,3.413,3.413,3.413h98.987    c1.884,0,3.413-1.528,3.413-3.413V22.187C194.56,20.303,193.031,18.774,191.147,18.774z M187.733,186.027h-92.16V25.6h92.16    V186.027z" data-original="#000000" class="active-path" data-old_color="#000000" fill="#EA6B38"/>
	</g>
</g><g>
	<g>
		<path d="M93.385,19.002L49.012,1.936c-1.048-0.404-2.229-0.265-3.157,0.372c-0.927,0.637-1.481,1.688-1.481,2.813v167.253    c0,1.411,0.87,2.68,2.188,3.185l44.373,17.067c0.396,0.154,0.812,0.229,1.225,0.229c0.679,0,1.355-0.203,1.932-0.601    c0.927-0.637,1.481-1.688,1.481-2.813V22.187C95.573,20.775,94.703,19.509,93.385,19.002z M88.747,184.47L51.2,170.029V10.09    l37.547,14.442V184.47z" data-original="#000000" class="active-path" data-old_color="#000000" fill="#EA6B38"/>
	</g>
</g><g>
	<g>
		<path d="M49.719,2.308c-0.927-0.638-2.109-0.778-3.157-0.372L2.188,19.002C0.87,19.509,0,20.775,0,22.187V189.44    c0,1.126,0.555,2.178,1.481,2.813c0.577,0.398,1.251,0.601,1.932,0.601c0.413,0,0.829-0.075,1.225-0.229l44.373-17.067    c1.318-0.507,2.188-1.773,2.188-3.185V5.12C51.2,3.996,50.645,2.944,49.719,2.308z M44.373,170.029L6.827,184.47V24.532    L44.373,10.09V170.029z" data-original="#000000" class="active-path" data-old_color="#000000" fill="#EA6B38"/>
	</g>
</g><g>
	<g>
		<g>
			<path d="M141.653,73.387c-10.351,0-18.773,8.422-18.773,18.773s8.422,18.773,18.773,18.773s18.773-8.422,18.773-18.773     S152.004,73.387,141.653,73.387z M141.653,104.107c-6.588,0-11.947-5.361-11.947-11.947s5.359-11.947,11.947-11.947     c6.588,0,11.947,5.361,11.947,11.947S148.241,104.107,141.653,104.107z" data-original="#000000" class="active-path" data-old_color="#000000" fill="#EA6B38"/>
			<path d="M141.653,56.32c-19.763,0-35.84,16.079-35.84,35.84c0,14.387,18.447,38.569,28.358,51.56     c1.98,2.598,4.029,5.282,4.314,5.789c0.519,1.294,1.739,2.217,3.133,2.217s2.615-0.773,3.133-2.068     c0.353-0.655,2.401-3.342,4.383-5.938c9.911-12.991,28.358-37.173,28.358-51.56C177.493,72.399,161.417,56.32,141.653,56.32z      M143.708,139.58c-0.799,1.044-1.476,1.937-2.055,2.702c-0.579-0.765-1.256-1.657-2.055-2.702     c-8.067-10.575-26.959-35.34-26.959-47.42c0-15.998,13.015-29.013,29.013-29.013s29.013,13.015,29.013,29.013     C170.667,104.24,151.776,129.005,143.708,139.58z" data-original="#000000" class="active-path" data-old_color="#000000" fill="#EA6B38"/>
		</g>
	</g>
</g></g> </svg>
