<?xml version="1.0"?>
<svg xmlns="http://www.w3.org/2000/svg" xmlns:xlink="http://www.w3.org/1999/xlink" version="1.1" id="Capa_1" x="0px" y="0px" viewBox="0 0 512 512" style="enable-background:new 0 0 512 512;" xml:space="preserve" width="512px" height="512px" class=""><g><g>
	<g>
		<path d="M436,0H76C51.187,0,31,20.187,31,45v422c0,24.813,20.187,45,45,45h360c24.813,0,45-20.187,45-45V45    C481,20.187,460.813,0,436,0z M451,467c0,8.271-6.729,15-15,15H76c-8.271,0-15-6.729-15-15V45c0-8.271,6.729-15,15-15h360    c8.271,0,15,6.729,15,15V467z" data-original="#000000" class="active-path" data-old_color="#000000" fill="#EA6B38"/>
	</g>
</g><g>
	<g>
		<path d="M406,60H106c-8.284,0-15,6.716-15,15v121c0,8.284,6.716,15,15,15h300c8.284,0,15-6.716,15-15V75    C421,66.716,414.284,60,406,60z M391,181H121V90h270V181z" data-original="#000000" class="active-path" data-old_color="#000000" fill="#EA6B38"/>
	</g>
</g><g>
	<g>
		<path d="M286,241c-36.04,0-144.089,0-180,0c-8.284,0-15,6.716-15,15c0,18.075,0,158.883,0,181c0,8.284,6.716,15,15,15    c36.04,0,144.089,0,180,0c8.284,0,15-6.716,15-15c0-19.186,0-158.462,0-181C301,247.716,294.284,241,286,241z M151,422h-30v-31h30    V422z M151,361h-30v-30h30V361z M151,301h-30v-30h30V301z M211,422h-30v-31h30V422z M211,361h-30v-30h30V361z M211,301h-30v-30h30    V301z M271,422h-30v-31h30V422z M271,361h-30v-30h30V361z M271,301h-30v-30h30V301z" data-original="#000000" class="active-path" data-old_color="#000000" fill="#EA6B38"/>
	</g>
</g><g>
	<g>
		<path d="M406,241h-60c-8.284,0-15,6.716-15,15c0,10.741,0,171.042,0,181c0,8.284,6.716,15,15,15h60c8.284,0,15-6.716,15-15    c0-9.958,0-170.259,0-181C421,247.716,414.284,241,406,241z M391,422h-30v-91h30V422z M391,301h-30v-30h30V301z" data-original="#000000" class="active-path" data-old_color="#000000" fill="#EA6B38"/>
	</g>
</g><g>
	<g>
		<path d="M196,121h-30c-8.284,0-15,6.716-15,15s6.716,15,15,15h30c8.284,0,15-6.716,15-15S204.284,121,196,121z" data-original="#000000" class="active-path" data-old_color="#000000" fill="#EA6B38"/>
	</g>
</g></g> </svg>
