<?xml version="1.0"?>
<svg xmlns="http://www.w3.org/2000/svg" height="512px" viewBox="0 -19 480 479" width="512px"><g><path d="m448 264.5h-80v-210.664062c-.035156-29.441407-23.894531-53.300782-53.335938-53.335938h-149.328124c-29.441407.035156-53.300782 23.894531-53.335938 53.335938v210.664062h-80c-17.671875 0-32 14.328125-32 32v112c0 17.671875 14.328125 32 32 32h416c17.671875 0 32-14.328125 32-32v-112c0-17.671875-14.328125-32-32-32zm-320-210.664062c.023438-20.609376 16.726562-37.3125 37.335938-37.335938h149.328124c20.609376.023438 37.3125 16.726562 37.335938 37.335938v258.664062h-224zm336 354.664062c0 8.835938-7.164062 16-16 16h-416c-8.835938 0-16-7.164062-16-16v-112c0-8.835938 7.164062-16 16-16h80v32h-16v16h288v-16h-16v-32h80c8.835938 0 16 7.164062 16 16zm0 0" data-original="#000000" class="active-path" data-old_color="#000000" fill="#EA6B38"/><path d="m336 76.835938c-.027344-24.476563-19.859375-44.308594-44.335938-44.335938h-103.328124c-24.476563.027344-44.308594 19.859375-44.335938 44.335938v131.664062h192zm-16 115.664062h-160v-115.664062c.019531-15.640626 12.695312-28.316407 28.335938-28.335938h103.328124c15.640626.019531 28.316407 12.695312 28.335938 28.335938zm0 0" data-original="#000000" class="active-path" data-old_color="#000000" fill="#EA6B38"/><path d="m240 232.5c-17.671875 0-32 14.328125-32 32s14.328125 32 32 32 32-14.328125 32-32-14.328125-32-32-32zm0 48c-8.835938 0-16-7.164062-16-16s7.164062-16 16-16 16 7.164062 16 16-7.164062 16-16 16zm0 0" data-original="#000000" class="active-path" data-old_color="#000000" fill="#EA6B38"/><path d="m176 160.5h64v16h-64zm0 0" data-original="#000000" class="active-path" data-old_color="#000000" fill="#EA6B38"/><path d="m275.574219 97.339844-64-32c-2.480469-1.238282-5.425781-1.105469-7.78125.351562-2.359375 1.460938-3.792969 4.035156-3.792969 6.808594v64c0 2.773438 1.433594 5.347656 3.792969 6.808594 2.355469 1.457031 5.300781 1.589844 7.78125.351562l64-32c2.71875-1.351562 4.433593-4.125 4.433593-7.160156s-1.714843-5.808594-4.433593-7.160156zm-59.574219 26.214844v-38.109376l38.113281 19.054688zm0 0" data-original="#000000" class="active-path" data-old_color="#000000" fill="#EA6B38"/><path d="m288 160.5h16v16h-16zm0 0" data-original="#000000" class="active-path" data-old_color="#000000" fill="#EA6B38"/><path d="m256 160.5h16v16h-16zm0 0" data-original="#000000" class="active-path" data-old_color="#000000" fill="#EA6B38"/><path d="m432 392.5h16v16h-16zm0 0" data-original="#000000" class="active-path" data-old_color="#000000" fill="#EA6B38"/><path d="m400 392.5h16v16h-16zm0 0" data-original="#000000" class="active-path" data-old_color="#000000" fill="#EA6B38"/><path d="m48 312.5h32v-16h-48v48h16zm0 0" data-original="#000000" class="active-path" data-old_color="#000000" fill="#EA6B38"/><path d="m400 312.5h32v32h16v-48h-48zm0 0" data-original="#000000" class="active-path" data-old_color="#000000" fill="#EA6B38"/><path d="m408 171.554688v32l-11.574219 5.785156 7.148438 14.320312 20.425781-10.214844v-32l11.574219-5.785156-7.148438-14.320312zm0 0" data-original="#000000" class="active-path" data-old_color="#000000" fill="#EA6B38"/><path d="m56 85.445312 11.574219-5.785156-7.148438-14.320312-20.425781 10.214844v32l-11.574219 5.785156 7.148438 14.320312 20.425781-10.214844zm0 0" data-original="#000000" class="active-path" data-old_color="#000000" fill="#EA6B38"/><path d="m50.359375 222.445312-6.191406 11.367188 14.046875 7.65625 10.929687-20.058594-21.945312-31.496094 16.953125-17.652343 14.457031 20.75-6.183594 11.375 14.046875 7.648437 10.917969-20.046875-31.269531-44.886719-39.546875 41.199219zm0 0" data-original="#000000" class="active-path" data-old_color="#000000" fill="#EA6B38"/><path d="m460.246094 58.683594-57.085938 1.167968-7.328125 40.96875-12.417969 3.664063 4.515626 15.34375 21.910156-6.457031 6.753906-37.792969 24.46875-.492187-4.453125 24.902343-12.417969 3.664063 4.535156 15.34375 21.898438-6.464844zm0 0" data-original="#000000" class="active-path" data-old_color="#000000" fill="#EA6B38"/><path d="m32 360.5v48h80v-48zm32 32h-16v-16h16zm32-16v16h-16v-16zm0 0" data-original="#000000" class="active-path" data-old_color="#000000" fill="#EA6B38"/></g> </svg>
