<?xml version="1.0"?>
<svg xmlns="http://www.w3.org/2000/svg" xmlns:xlink="http://www.w3.org/1999/xlink" version="1.1" id="Capa_1" x="0px" y="0px" viewBox="0 0 512 512" style="enable-background:new 0 0 512 512;" xml:space="preserve" width="512px" height="512px" class=""><g><g>
	<g>
		<path d="M346,147.998H74c-18.748,0-34,15.253-34,34v203.935c0,18.748,15.252,34,34,34h272c18.748,0,34-15.252,34-34V181.998    C380,163.25,364.748,147.998,346,147.998z M360,385.933c0,7.72-6.28,14-14,14H74c-7.72,0-14-6.28-14-14V181.998    c0-7.72,6.28-14,14-14h272c7.72,0,14,6.28,14,14V385.933z" data-original="#000000" class="active-path" data-old_color="#000000" fill="#EA6B38"/>
	</g>
</g><g>
	<g>
		<path d="M482,95.998H304.052c-1.027-7.634-3.827-14.711-7.986-20.797l58.125-58.125c3.905-3.905,3.905-10.237,0-14.143    c-3.906-3.905-10.236-3.905-14.143,0l-58.416,58.415c-7.443-4.654-16.227-7.354-25.633-7.354c-9.442,0-18.256,2.722-25.717,7.408    l-39.595-39.596c-3.906-3.905-10.236-3.905-14.143,0c-3.905,3.905-3.905,10.237,0,14.143l39.332,39.331    c-4.128,6.067-6.906,13.117-7.929,20.716H139c-5.522,0-10,4.477-10,10s4.478,10,10,10h343c5.514,0,10,4.486,10,10v316    c0,5.514-4.486,10-10,10H30c-5.514,0-10-4.486-10-10v-316c0-5.514,4.486-10,10-10h21.5c5.522,0,10-4.477,10-10s-4.478-10-10-10H30    c-16.542,0-30,13.458-30,30v316c0,16.542,13.458,30,30,30h17.088l19.151,34.819c1.757,3.195,5.115,5.181,8.762,5.181h362    c3.646,0,7.005-1.985,8.762-5.181l19.151-34.819H482c16.542,0,30-13.458,30-30v-316C512,109.456,498.542,95.998,482,95.998z     M228.247,95.998c2.947-12.596,14.271-22.003,27.753-22.003s24.806,9.407,27.753,22.003H228.247z M431.087,491.998H80.913l-11-20    h372.174L431.087,491.998z" data-original="#000000" class="active-path" data-old_color="#000000" fill="#EA6B38"/>
	</g>
</g><g>
	<g>
		<path d="M103.569,98.926c-1.859-1.86-4.439-2.93-7.069-2.93s-5.21,1.07-7.07,2.93s-2.93,4.44-2.93,7.07    c0,2.64,1.069,5.21,2.93,7.07c1.86,1.869,4.44,2.93,7.07,2.93s5.21-1.06,7.069-2.93c1.86-1.86,2.931-4.44,2.931-7.07    S105.43,100.786,103.569,98.926z" data-original="#000000" class="active-path" data-old_color="#000000" fill="#EA6B38"/>
	</g>
</g><g>
	<g>
		<path d="M436,147.999c-18.748,0-34,15.252-34,34c0,18.748,15.252,34,34,34s34-15.252,34-34    C470,163.251,454.748,147.999,436,147.999z M436,195.999c-7.72,0-14-6.28-14-14c0-7.72,6.28-14,14-14c7.72,0,14,6.28,14,14    C450,189.719,443.72,195.999,436,195.999z" data-original="#000000" class="active-path" data-old_color="#000000" fill="#EA6B38"/>
	</g>
</g><g>
	<g>
		<path d="M463,399.933h-51c-5.522,0-10,4.477-10,10s4.478,10,10,10h51c5.522,0,10-4.477,10-10S468.522,399.933,463,399.933z" data-original="#000000" class="active-path" data-old_color="#000000" fill="#EA6B38"/>
	</g>
</g><g>
	<g>
		<path d="M463,359.912h-51c-5.522,0-10,4.477-10,10s4.478,10,10,10h51c5.522,0,10-4.477,10-10S468.522,359.912,463,359.912z" data-original="#000000" class="active-path" data-old_color="#000000" fill="#EA6B38"/>
	</g>
</g><g>
	<g>
		<path d="M463,319.891h-51c-5.522,0-10,4.477-10,10s4.478,10,10,10h51c5.522,0,10-4.477,10-10S468.522,319.891,463,319.891z" data-original="#000000" class="active-path" data-old_color="#000000" fill="#EA6B38"/>
	</g>
</g><g>
	<g>
		<path d="M419.069,241.906c-1.859-1.86-4.439-2.93-7.069-2.93s-5.21,1.07-7.07,2.93c-1.86,1.87-2.93,4.44-2.93,7.08    c0,2.629,1.069,5.199,2.93,7.07c1.86,1.86,4.44,2.93,7.07,2.93s5.21-1.07,7.069-2.93c1.86-1.86,2.931-4.44,2.931-7.07    C422,246.346,420.93,243.766,419.069,241.906z" data-original="#000000" class="active-path" data-old_color="#000000" fill="#EA6B38"/>
	</g>
</g><g>
	<g>
		<path d="M467.069,241.905c-1.859-1.86-4.439-2.92-7.069-2.92s-5.21,1.06-7.07,2.92c-1.86,1.87-2.93,4.44-2.93,7.07    c0,2.64,1.069,5.21,2.93,7.08c1.86,1.86,4.44,2.93,7.07,2.93s5.21-1.07,7.069-2.93c1.86-1.87,2.931-4.44,2.931-7.08    C470,246.345,468.93,243.775,467.069,241.905z" data-original="#000000" class="active-path" data-old_color="#000000" fill="#EA6B38"/>
	</g>
</g><g>
	<g>
		<path d="M467.069,281.905c-1.859-1.86-4.439-2.92-7.069-2.92s-5.21,1.06-7.07,2.92c-1.86,1.87-2.93,4.44-2.93,7.07    c0,2.64,1.069,5.21,2.93,7.08c1.86,1.86,4.44,2.93,7.07,2.93s5.21-1.07,7.069-2.93c1.86-1.87,2.931-4.44,2.931-7.08    C470,286.345,468.93,283.765,467.069,281.905z" data-original="#000000" class="active-path" data-old_color="#000000" fill="#EA6B38"/>
	</g>
</g><g>
	<g>
		<path d="M419.069,281.906c-1.859-1.86-4.439-2.93-7.069-2.93s-5.21,1.07-7.07,2.93c-1.86,1.87-2.93,4.44-2.93,7.08    c0,2.629,1.069,5.209,2.93,7.07c1.86,1.86,4.44,2.93,7.07,2.93s5.21-1.07,7.069-2.93c1.86-1.86,2.931-4.44,2.931-7.07    C422,286.346,420.93,283.766,419.069,281.906z" data-original="#000000" class="active-path" data-old_color="#000000" fill="#EA6B38"/>
	</g>
</g><g>
	<g>
		<path d="M210,229.966c-29.775,0-54,24.224-54,54s24.225,54,54,54c29.775,0,54-24.224,54-54S239.775,229.966,210,229.966z     M210,317.966c-18.748,0-34-15.252-34-34s15.252-34,34-34s34,15.252,34,34S228.748,317.966,210,317.966z" data-original="#000000" class="active-path" data-old_color="#000000" fill="#EA6B38"/>
	</g>
</g><g>
	<g>
		<path d="M210,183.998c-5.522,0-10,4.477-10,10v10.588c0,5.523,4.478,10,10,10c5.522,0,10-4.477,10-10v-10.588    C220,188.475,215.522,183.998,210,183.998z" data-original="#000000" class="active-path" data-old_color="#000000" fill="#EA6B38"/>
	</g>
</g><g>
	<g>
		<path d="M210,353.345c-5.522,0-10,4.477-10,10v10.588c0,5.523,4.478,10,10,10c5.522,0,10-4.477,10-10v-10.588    C220,357.822,215.522,353.345,210,353.345z" data-original="#000000" class="active-path" data-old_color="#000000" fill="#EA6B38"/>
	</g>
</g><g>
	<g>
		<path d="M299.967,273.966H289.38c-5.523,0-10,4.477-10,10s4.478,10,10,10h10.587c5.522,0,10-4.477,10-10    S305.489,273.966,299.967,273.966z" data-original="#000000" class="active-path" data-old_color="#000000" fill="#EA6B38"/>
	</g>
</g><g>
	<g>
		<path d="M130.621,273.966h-10.588c-5.522,0-10,4.477-10,10s4.478,10,10,10h10.588c5.522,0,10-4.477,10-10    S136.143,273.966,130.621,273.966z" data-original="#000000" class="active-path" data-old_color="#000000" fill="#EA6B38"/>
	</g>
</g><g>
	<g>
		<path d="M280.687,213.278c-3.906-3.905-10.238-3.905-14.143,0l-7.486,7.487c-3.905,3.905-3.905,10.237,0,14.142    c1.954,1.953,4.512,2.929,7.072,2.929s5.119-0.977,7.071-2.929l7.486-7.487C284.592,223.515,284.592,217.183,280.687,213.278z" data-original="#000000" class="active-path" data-old_color="#000000" fill="#EA6B38"/>
	</g>
</g><g>
	<g>
		<path d="M160.941,333.025c-3.906-3.906-10.238-3.905-14.142,0l-7.486,7.487c-3.905,3.905-3.905,10.237,0,14.142    c1.953,1.953,4.512,2.929,7.071,2.929c2.559,0,5.119-0.977,7.071-2.929l7.486-7.487    C164.846,343.262,164.846,336.93,160.941,333.025z" data-original="#000000" class="active-path" data-old_color="#000000" fill="#EA6B38"/>
	</g>
</g><g>
	<g>
		<path d="M280.686,340.512l-7.485-7.487c-3.904-3.905-10.234-3.905-14.143,0c-3.905,3.905-3.905,10.237,0,14.142l7.486,7.487    c1.953,1.953,4.512,2.929,7.071,2.929s5.118-0.977,7.071-2.929C284.591,350.749,284.591,344.417,280.686,340.512z" data-original="#000000" class="active-path" data-old_color="#000000" fill="#EA6B38"/>
	</g>
</g><g>
	<g>
		<path d="M160.941,220.765l-7.486-7.487c-3.905-3.905-10.235-3.905-14.143,0c-3.905,3.905-3.905,10.237,0,14.142l7.487,7.487    c1.953,1.953,4.512,2.929,7.071,2.929s5.118-0.977,7.071-2.929C164.846,231.002,164.846,224.67,160.941,220.765z" data-original="#000000" class="active-path" data-old_color="#000000" fill="#EA6B38"/>
	</g>
</g></g> </svg>
